<?xml version="1.0" encoding="utf-8"?>
<!-- Generator: Adobe Illustrator 25.0.1, SVG Export Plug-In . SVG Version: 6.00 Build 0)  -->
<svg version="1.1" id="Layer_1" xmlns="http://www.w3.org/2000/svg" xmlns:xlink="http://www.w3.org/1999/xlink" x="0px" y="0px"
	 viewBox="0 0 294 362" style="enable-background:new 0 0 294 362;" xml:space="preserve">
<style type="text/css">
	.st0{fill:none;stroke:#FFFFFF;stroke-miterlimit:10;}
</style>
<path class="st0" d="M268.92,5.25L4.9,20.56l19.45,335.36l264.02-15.31L268.92,5.25z M21.77,39.61l232.6-13.49l0.66,11.44L183,41.67
	l-0.15-2.64c-0.19-3.29-3.01-5.81-6.3-5.62l-1.58,0.09c-3.29,0.19-5.81,3.01-5.62,6.3l0.15,2.64l-2.5,0.14l-0.15-2.64
	c-0.19-3.29-3.01-5.81-6.3-5.62l-1.58,0.09c-3.29,0.19-5.81,3.01-5.62,6.3l0.15,2.64l-2.88,0.16l-0.15-2.64
	c-0.19-3.29-3.01-5.81-6.3-5.62l-1.58,0.09c-3.29,0.19-5.81,3.01-5.62,6.3l0.15,2.64l-2.5,0.14l-0.15-2.64
	c-0.19-3.29-3.01-5.81-6.3-5.62l-1.58,0.09c-3.29,0.19-5.81,3.01-5.62,6.3l0.15,2.64l-2.5,0.14l-0.15-2.64
	c-0.19-3.29-3.01-5.81-6.3-5.62l-1.58,0.09c-3.29,0.19-5.81,3.01-5.62,6.3l0.15,2.64l-2.5,0.14l-0.15-2.64
	c-0.19-3.29-3.01-5.81-6.3-5.62l-1.58,0.09c-3.29,0.19-5.81,3.01-5.62,6.3l0.15,2.64l-2.53,0.14l-0.15-2.64
	c-0.19-3.29-3.01-5.81-6.3-5.62l-1.58,0.09c-3.29,0.19-5.81,3.01-5.62,6.3l0.15,2.64l-2.5,0.14l-0.15-2.64
	c-0.19-3.29-3.01-5.81-6.3-5.62l-1.58,0.09c-3.29,0.19-5.81,3.01-5.62,6.3l0.15,2.64l-2.5,0.14l-0.15-2.64
	c-0.19-3.29-3.01-5.81-6.3-5.62l-1.58,0.09c-3.29,0.19-5.81,3.01-5.62,6.3l0.15,2.64l-2.5,0.14l-0.15-2.64
	c-0.19-3.29-3.01-5.81-6.3-5.62l-1.58,0.09c-3.29,0.19-5.81,3.01-5.62,6.3l0.15,2.64l-2.69,0.15L21.77,39.61z M22.64,54.7l2.68-0.15
	l0.2,3.56c0.19,3.29,3.01,5.81,6.3,5.62l1.58-0.09c3.29-0.19,5.81-3.01,5.62-6.3l-0.2-3.56l2.5-0.14l0.2,3.56
	c0.19,3.29,3.01,5.81,6.3,5.62l1.58-0.09c3.29-0.19,5.81-3.01,5.62-6.3l-0.2-3.56l2.5-0.14l0.2,3.56c0.19,3.29,3.01,5.81,6.3,5.62
	l1.58-0.09c3.29-0.19,5.81-3.01,5.62-6.3l-0.2-3.56l2.5-0.14l0.2,3.56c0.19,3.29,3.01,5.81,6.3,5.62l1.58-0.09
	c3.29-0.19,5.81-3.01,5.62-6.3l-0.2-3.56l2.53-0.14l0.2,3.56c0.19,3.29,3.01,5.81,6.3,5.62l1.58-0.09c3.29-0.19,5.81-3.01,5.62-6.3
	l-0.2-3.56l2.5-0.14l0.2,3.56c0.19,3.29,3.01,5.81,6.3,5.62l1.58-0.09c3.29-0.19,5.81-3.01,5.62-6.3l-0.2-3.56l2.5-0.14l0.2,3.56
	c0.19,3.29,3.01,5.81,6.3,5.62l1.58-0.09c3.29-0.19,5.81-3.01,5.62-6.3l-0.2-3.56l2.5-0.14l0.2,3.56c0.19,3.29,3.01,5.81,6.3,5.62
	l1.58-0.09c3.29-0.19,5.81-3.01,5.62-6.3l-0.2-3.56l2.88-0.16l0.2,3.56c0.19,3.29,3.01,5.81,6.3,5.62l1.58-0.09
	c3.29-0.19,5.81-3.01,5.62-6.3l-0.2-3.56l2.5-0.14l0.2,3.56c0.19,3.29,3.01,5.81,6.3,5.62l1.58-0.09c3.29-0.19,5.81-3.01,5.62-6.3
	l-0.2-3.56l72.04-4.11l1.36,23.53l-71.92,4.1l-0.18-3.19c-0.19-3.29-3.01-5.81-6.3-5.62l-1.58,0.09c-3.29,0.19-5.81,3.01-5.62,6.3
	l0.18,3.19l-2.5,0.14l-0.18-3.19c-0.19-3.29-3.01-5.81-6.3-5.62l-1.58,0.09c-3.29,0.19-5.81,3.01-5.62,6.3l0.18,3.19l-2.88,0.16
	l-0.18-3.19c-0.19-3.29-3.01-5.81-6.3-5.62l-1.58,0.09c-3.29,0.19-5.81,3.01-5.62,6.3l0.18,3.19l-2.5,0.14l-0.18-3.19
	c-0.19-3.29-3.01-5.81-6.3-5.62l-1.58,0.09c-3.29,0.19-5.81,3.01-5.62,6.3l0.18,3.19l-2.5,0.14l-0.18-3.19
	c-0.19-3.29-3.01-5.81-6.3-5.62l-1.58,0.09c-3.29,0.19-5.81,3.01-5.62,6.3l0.18,3.19l-2.5,0.14l-0.18-3.19
	c-0.19-3.29-3.01-5.81-6.3-5.62l-1.58,0.09c-3.29,0.19-5.81,3.01-5.62,6.3l0.18,3.19l-2.53,0.14l-0.18-3.19
	c-0.19-3.29-3.01-5.81-6.3-5.62l-1.58,0.09c-3.29,0.19-5.81,3.01-5.62,6.3l0.18,3.19l-2.5,0.14l-0.18-3.19
	c-0.19-3.29-3.01-5.81-6.3-5.62l-1.58,0.09c-3.29,0.19-5.81,3.01-5.62,6.3l0.18,3.19l-2.5,0.14l-0.18-3.19
	c-0.19-3.29-3.01-5.81-6.3-5.62l-1.58,0.09c-3.29,0.19-5.81,3.01-5.62,6.3l0.18,3.19l-2.5,0.14l-0.18-3.19
	c-0.19-3.29-3.01-5.81-6.3-5.62l-1.58,0.09c-3.29,0.19-5.81,3.01-5.62,6.3l0.18,3.19l-2.8,0.16L22.64,54.7z M24.23,82.09l2.79-0.16
	l0.17,3.02c0.19,3.29,3.01,5.81,6.3,5.62l1.58-0.09c3.29-0.19,5.81-3.01,5.62-6.3l-0.17-3.02l2.5-0.14l0.17,3.02
	c0.19,3.29,3.01,5.81,6.3,5.62l1.58-0.09c3.29-0.19,5.81-3.01,5.62-6.3l-0.17-3.02l2.5-0.14l0.17,3.02c0.19,3.29,3.01,5.81,6.3,5.62
	l1.58-0.09c3.29-0.19,5.81-3.01,5.62-6.3l-0.17-3.02l2.5-0.14l0.17,3.02c0.19,3.29,3.01,5.81,6.3,5.62l1.58-0.09
	c3.29-0.19,5.81-3.01,5.62-6.3l-0.17-3.02l2.53-0.14l0.17,3.02c0.19,3.29,3.01,5.81,6.3,5.62l1.58-0.09
	c3.29-0.19,5.81-3.01,5.62-6.3l-0.17-3.02l2.5-0.14l0.17,3.02c0.19,3.29,3.01,5.81,6.3,5.62l1.58-0.09c3.29-0.19,5.81-3.01,5.62-6.3
	l-0.17-3.02l2.5-0.14l0.17,3.02c0.19,3.29,3.01,5.81,6.3,5.62L131.1,85c3.29-0.19,5.81-3.01,5.62-6.3l-0.17-3.02l2.5-0.14l0.17,3.02
	c0.19,3.29,3.01,5.81,6.3,5.62l1.58-0.09c3.29-0.19,5.81-3.01,5.62-6.3l-0.17-3.02l2.88-0.16l0.17,3.02
	c0.19,3.29,3.01,5.81,6.3,5.62l1.58-0.09c3.29-0.19,5.81-3.01,5.62-6.3l-0.17-3.02l2.5-0.14l0.17,3.02c0.19,3.29,3.01,5.81,6.3,5.62
	l1.58-0.09c3.29-0.19,5.81-3.01,5.62-6.3l-0.17-3.02l71.92-4.1l1.36,23.53l-72.08,4.11l-0.18-3.08c-0.19-3.29-3.01-5.81-6.3-5.62
	l-1.58,0.09c-3.29,0.19-5.81,3.01-5.62,6.3l0.18,3.08l-2.5,0.14l-0.18-3.08c-0.19-3.29-3.01-5.81-6.3-5.62l-1.58,0.09
	c-3.29,0.19-5.81,3.01-5.62,6.3l0.18,3.08l-2.88,0.16l-0.18-3.08c-0.19-3.29-3.01-5.81-6.3-5.62l-1.58,0.09
	c-3.29,0.19-5.81,3.01-5.62,6.3l0.18,3.08l-2.5,0.14l-0.18-3.08c-0.19-3.29-3.01-5.81-6.3-5.62l-1.58,0.09
	c-3.29,0.19-5.81,3.01-5.62,6.3l0.18,3.08l-2.5,0.14l-0.18-3.08c-0.19-3.29-3.01-5.81-6.3-5.62l-1.58,0.09
	c-3.29,0.19-5.81,3.01-5.62,6.3l0.18,3.08l-2.5,0.14l-0.18-3.08c-0.19-3.29-3.01-5.81-6.3-5.62l-1.58,0.09
	c-3.29,0.19-5.81,3.01-5.62,6.3l0.18,3.08l-2.53,0.14l-0.18-3.08c-0.19-3.29-3.01-5.81-6.3-5.62l-1.58,0.09
	c-3.29,0.19-5.81,3.01-5.62,6.3l0.18,3.08l-2.5,0.14l-0.18-3.08c-0.19-3.29-3.01-5.81-6.3-5.62l-1.58,0.09
	c-3.29,0.19-5.81,3.01-5.62,6.3l0.18,3.08l-2.5,0.14l-0.18-3.08c-0.19-3.29-3.01-5.81-6.3-5.62l-1.58,0.09
	c-3.29,0.19-5.81,3.01-5.62,6.3l0.18,3.08l-2.5,0.14l-0.18-3.08c-0.19-3.29-3.01-5.81-6.3-5.62l-1.58,0.09
	c-3.29,0.19-5.81,3.01-5.62,6.3l0.18,3.08l-2.63,0.15L24.23,82.09z M25.82,109.49l2.63-0.15l0.18,3.13c0.19,3.29,3.01,5.81,6.3,5.62
	l1.58-0.09c3.29-0.19,5.81-3.01,5.62-6.3l-0.18-3.13l2.5-0.14l0.18,3.13c0.19,3.29,3.01,5.81,6.3,5.62l1.58-0.09
	c3.29-0.19,5.81-3.01,5.62-6.3l-0.18-3.13l2.5-0.14l0.18,3.13c0.19,3.29,3.01,5.81,6.3,5.62l1.58-0.09c3.29-0.19,5.81-3.01,5.62-6.3
	l-0.18-3.13l2.5-0.14l0.18,3.13c0.19,3.29,3.01,5.81,6.3,5.62l1.58-0.09c3.29-0.19,5.81-3.01,5.62-6.3l-0.18-3.13l2.53-0.14
	l0.18,3.13c0.19,3.29,3.01,5.81,6.3,5.62l1.58-0.09c3.29-0.19,5.81-3.01,5.62-6.3l-0.18-3.13l2.5-0.14l0.18,3.13
	c0.19,3.29,3.01,5.81,6.3,5.62l1.58-0.09c3.29-0.19,5.81-3.01,5.62-6.3l-0.18-3.13l2.5-0.14l0.18,3.13c0.19,3.29,3.01,5.81,6.3,5.62
	l1.58-0.09c3.29-0.19,5.81-3.01,5.62-6.3l-0.18-3.13l2.5-0.14l0.18,3.13c0.19,3.29,3.01,5.81,6.3,5.62l1.58-0.09
	c3.29-0.19,5.81-3.01,5.62-6.3l-0.18-3.13l2.88-0.16l0.18,3.13c0.19,3.29,3.01,5.81,6.3,5.62l1.58-0.09
	c3.29-0.19,5.81-3.01,5.62-6.3l-0.18-3.13l2.5-0.14l0.18,3.13c0.19,3.29,3.01,5.81,6.3,5.62l1.58-0.09c3.29-0.19,5.81-3.01,5.62-6.3
	l-0.18-3.13l72.09-4.11l1.41,24.35l-72.11,4.11l-0.17-2.92c-0.19-3.29-3.01-5.81-6.3-5.62l-1.58,0.09c-3.29,0.19-5.81,3.01-5.62,6.3
	l0.17,2.92l-2.5,0.14l-0.17-2.92c-0.19-3.29-3.01-5.81-6.3-5.62l-1.58,0.09c-3.29,0.19-5.81,3.01-5.62,6.3l0.17,2.92l-2.88,0.16
	l-0.17-2.92c-0.19-3.29-3.01-5.81-6.3-5.62l-1.58,0.09c-3.29,0.19-5.81,3.01-5.62,6.3l0.17,2.92l-2.5,0.14l-0.17-2.92
	c-0.19-3.29-3.01-5.81-6.3-5.62l-1.58,0.09c-3.29,0.19-5.81,3.01-5.62,6.3l0.17,2.92l-2.5,0.14l-0.17-2.92
	c-0.19-3.29-3.01-5.81-6.3-5.62l-1.58,0.09c-3.29,0.19-5.81,3.01-5.62,6.3l0.17,2.92l-2.5,0.14l-0.17-2.92
	c-0.19-3.29-3.01-5.81-6.3-5.62l-1.58,0.09c-3.29,0.19-5.81,3.01-5.62,6.3l0.17,2.92l-2.53,0.14l-0.17-2.92
	c-0.19-3.29-3.01-5.81-6.3-5.62l-1.58,0.09c-3.29,0.19-5.81,3.01-5.62,6.3l0.17,2.92l-2.5,0.14l-0.17-2.92
	c-0.19-3.29-3.01-5.81-6.3-5.62l-1.58,0.09c-3.29,0.19-5.81,3.01-5.62,6.3l0.17,2.92l-2.5,0.14l-0.17-2.92
	c-0.19-3.29-3.01-5.81-6.3-5.62l-1.58,0.09c-3.29,0.19-5.81,3.01-5.62,6.3l0.17,2.92l-2.5,0.14l-0.17-2.92
	c-0.19-3.29-3.01-5.81-6.3-5.62l-1.58,0.09c-3.29,0.19-5.81,3.01-5.62,6.3l0.17,2.92l-2.61,0.15L25.82,109.49z M27.46,137.71
	l2.6-0.15l0.19,3.29c0.19,3.29,3.01,5.81,6.3,5.62l1.58-0.09c3.29-0.19,5.81-3.01,5.62-6.3l-0.19-3.29l2.5-0.14l0.19,3.29
	c0.19,3.29,3.01,5.81,6.3,5.62l1.58-0.09c3.29-0.19,5.81-3.01,5.62-6.3l-0.19-3.29l2.5-0.14l0.19,3.29c0.19,3.29,3.01,5.81,6.3,5.62
	l1.58-0.09c3.29-0.19,5.81-3.01,5.62-6.3l-0.19-3.29l2.5-0.14l0.19,3.29c0.19,3.29,3.01,5.81,6.3,5.62l1.58-0.09
	c3.29-0.19,5.81-3.01,5.62-6.3l-0.19-3.29l2.53-0.14l0.19,3.29c0.19,3.29,3.01,5.81,6.3,5.62l1.58-0.09
	c3.29-0.19,5.81-3.01,5.62-6.3l-0.19-3.29l2.5-0.14l0.19,3.29c0.19,3.29,3.01,5.81,6.3,5.62l1.58-0.09c3.29-0.19,5.81-3.01,5.62-6.3
	l-0.19-3.29l2.5-0.14l0.19,3.29c0.19,3.29,3.01,5.81,6.3,5.62l1.58-0.09c3.29-0.19,5.81-3.01,5.62-6.3l-0.19-3.29l2.5-0.14
	l0.19,3.29c0.19,3.29,3.01,5.81,6.3,5.62l1.58-0.09c3.29-0.19,5.81-3.01,5.62-6.3l-0.19-3.29l2.88-0.16l0.19,3.29
	c0.19,3.29,3.01,5.81,6.3,5.62l1.58-0.09c3.29-0.19,5.81-3.01,5.62-6.3l-0.19-3.29l2.5-0.14l0.19,3.29c0.19,3.29,3.01,5.81,6.3,5.62
	l1.58-0.09c3.29-0.19,5.81-3.01,5.62-6.3l-0.19-3.29l72.11-4.11l1.41,24.35l-72.39,4.13l-0.18-3.08c-0.19-3.29-3.01-5.81-6.3-5.62
	l-1.58,0.09c-3.29,0.19-5.81,3.01-5.62,6.3l0.18,3.08l-2.5,0.14l-0.18-3.08c-0.19-3.29-3.01-5.81-6.3-5.62l-1.58,0.09
	c-3.29,0.19-5.81,3.01-5.62,6.3l0.18,3.08l-2.88,0.16l-0.18-3.08c-0.19-3.29-3.01-5.81-6.3-5.62l-1.58,0.09
	c-3.29,0.19-5.81,3.01-5.62,6.3l0.18,3.08l-2.5,0.14l-0.18-3.08c-0.19-3.29-3.01-5.81-6.3-5.62l-1.58,0.09
	c-3.29,0.19-5.81,3.01-5.62,6.3l0.18,3.08l-2.5,0.14l-0.18-3.08c-0.19-3.29-3.01-5.81-6.3-5.62l-1.58,0.09
	c-3.29,0.19-5.81,3.01-5.62,6.3l0.18,3.08l-2.5,0.14l-0.18-3.08c-0.19-3.29-3.01-5.81-6.3-5.62l-1.58,0.09
	c-3.29,0.19-5.81,3.01-5.62,6.3l0.18,3.08l-2.53,0.14l-0.18-3.08c-0.19-3.29-3.01-5.81-6.3-5.62l-1.58,0.09
	c-3.29,0.19-5.81,3.01-5.62,6.3l0.18,3.08l-2.5,0.14l-0.18-3.08c-0.19-3.29-3.01-5.81-6.3-5.62l-1.58,0.09
	c-3.29,0.19-5.81,3.01-5.62,6.3l0.18,3.08l-2.5,0.14l-0.18-3.08c-0.19-3.29-3.01-5.81-6.3-5.62l-1.58,0.09
	c-3.29,0.19-5.81,3.01-5.62,6.3l0.18,3.08l-2.5,0.14l-0.18-3.08c-0.19-3.29-3.01-5.81-6.3-5.62l-1.58,0.09
	c-3.29,0.19-5.81,3.01-5.62,6.3l0.18,3.08l-2.33,0.13L27.46,137.71z M29.09,165.94l2.33-0.13l0.18,3.13
	c0.19,3.29,3.01,5.81,6.3,5.62l1.58-0.09c3.29-0.19,5.81-3.01,5.62-6.3l-0.18-3.13l2.5-0.14l0.18,3.13c0.19,3.29,3.01,5.81,6.3,5.62
	l1.58-0.09c3.29-0.19,5.81-3.01,5.62-6.3l-0.18-3.13l2.5-0.14l0.18,3.13c0.19,3.29,3.01,5.81,6.3,5.62l1.58-0.09
	c3.29-0.19,5.81-3.01,5.62-6.3l-0.18-3.13l2.5-0.14l0.18,3.13c0.19,3.29,3.01,5.81,6.3,5.62l1.58-0.09c3.29-0.19,5.81-3.01,5.62-6.3
	l-0.18-3.13l2.53-0.14l0.18,3.13c0.19,3.29,3.01,5.81,6.3,5.62l1.58-0.09c3.29-0.19,5.81-3.01,5.62-6.3l-0.18-3.13l2.5-0.14
	l0.18,3.13c0.19,3.29,3.01,5.81,6.3,5.62l1.58-0.09c3.29-0.19,5.81-3.01,5.62-6.3l-0.18-3.13l2.5-0.14l0.18,3.13
	c0.19,3.29,3.01,5.81,6.3,5.62l1.58-0.09c3.29-0.19,5.81-3.01,5.62-6.3l-0.18-3.13l2.5-0.14l0.18,3.13c0.19,3.29,3.01,5.81,6.3,5.62
	l1.58-0.09c3.29-0.19,5.81-3.01,5.62-6.3l-0.18-3.13l2.88-0.16l0.18,3.13c0.19,3.29,3.01,5.81,6.3,5.62l1.58-0.09
	c3.29-0.19,5.81-3.01,5.62-6.3l-0.18-3.13l2.5-0.14l0.18,3.13c0.19,3.29,3.01,5.81,6.3,5.62l1.58-0.09c3.29-0.19,5.81-3.01,5.62-6.3
	l-0.18-3.13l72.39-4.13l1.46,25.18l-72.51,4.14l-0.2-3.49c-0.19-3.29-3.01-5.81-6.3-5.62l-1.58,0.09c-3.29,0.19-5.81,3.01-5.62,6.3
	l0.2,3.49l-2.5,0.14l-0.2-3.49c-0.19-3.29-3.01-5.81-6.3-5.62l-1.58,0.09c-3.29,0.19-5.81,3.01-5.62,6.3l0.2,3.49l-2.88,0.16
	l-0.2-3.49c-0.19-3.29-3.01-5.81-6.3-5.62l-1.58,0.09c-3.29,0.19-5.81,3.01-5.62,6.3l0.2,3.49l-2.5,0.14l-0.2-3.49
	c-0.19-3.29-3.01-5.81-6.3-5.62l-1.58,0.09c-3.29,0.19-5.81,3.01-5.62,6.3l0.2,3.49l-2.5,0.14l-0.2-3.49
	c-0.19-3.29-3.01-5.81-6.3-5.62l-1.58,0.09c-3.29,0.19-5.81,3.01-5.62,6.3l0.2,3.49l-2.5,0.14l-0.2-3.49
	c-0.19-3.29-3.01-5.81-6.3-5.62l-1.58,0.09c-3.29,0.19-5.81,3.01-5.62,6.3l0.2,3.49l-2.53,0.14l-0.2-3.49
	c-0.19-3.29-3.01-5.81-6.3-5.62l-1.58,0.09c-3.29,0.19-5.81,3.01-5.62,6.3l0.2,3.49l-2.5,0.14l-0.2-3.49
	c-0.19-3.29-3.01-5.81-6.3-5.62l-1.58,0.09c-3.29,0.19-5.81,3.01-5.62,6.3l0.2,3.49l-2.5,0.14l-0.2-3.49
	c-0.19-3.29-3.01-5.81-6.3-5.62l-1.58,0.09c-3.29,0.19-5.81,3.01-5.62,6.3l0.2,3.49l-2.5,0.14l-0.2-3.49
	c-0.19-3.29-3.01-5.81-6.3-5.62l-1.58,0.09c-3.29,0.19-5.81,3.01-5.62,6.3l0.2,3.49l-2.21,0.13L29.09,165.94z M30.78,194.98
	l2.2-0.13l0.15,2.71c0.19,3.29,3.01,5.81,6.3,5.62l1.58-0.09c3.29-0.19,5.81-3.01,5.62-6.3l-0.15-2.71l2.5-0.14l0.15,2.71
	c0.19,3.29,3.01,5.81,6.3,5.62l1.58-0.09c3.29-0.19,5.81-3.01,5.62-6.3l-0.15-2.71l2.5-0.14l0.15,2.71c0.19,3.29,3.01,5.81,6.3,5.62
	l1.58-0.09c3.29-0.19,5.81-3.01,5.62-6.3l-0.15-2.71l2.5-0.14l0.15,2.71c0.19,3.29,3.01,5.81,6.3,5.62l1.58-0.09
	c3.29-0.19,5.81-3.01,5.62-6.3l-0.15-2.71l2.53-0.14l0.15,2.71c0.19,3.29,3.01,5.81,6.3,5.62l1.58-0.09
	c3.29-0.19,5.81-3.01,5.62-6.3l-0.15-2.71l2.5-0.14l0.15,2.71c0.19,3.29,3.01,5.81,6.3,5.62l1.58-0.09c3.29-0.19,5.81-3.01,5.62-6.3
	l-0.15-2.71l2.5-0.14l0.15,2.71c0.19,3.29,3.01,5.81,6.3,5.62l1.58-0.09c3.29-0.19,5.81-3.01,5.62-6.3l-0.15-2.71l2.5-0.14
	l0.15,2.71c0.19,3.29,3.01,5.81,6.3,5.62l1.58-0.09c3.29-0.19,5.81-3.01,5.62-6.3l-0.15-2.71l2.88-0.16l0.15,2.71
	c0.19,3.29,3.01,5.81,6.3,5.62l1.58-0.09c3.29-0.19,5.81-3.01,5.62-6.3l-0.15-2.71l2.5-0.14l0.15,2.71c0.19,3.29,3.01,5.81,6.3,5.62
	l1.58-0.09c3.29-0.19,5.81-3.01,5.62-6.3l-0.15-2.71l72.52-4.14l1.36,23.53l-72.04,4.11l-0.18-3.13c-0.19-3.29-3.01-5.81-6.3-5.62
	l-1.58,0.09c-3.29,0.19-5.81,3.01-5.62,6.3l0.18,3.13l-2.5,0.14l-0.18-3.13c-0.19-3.29-3.01-5.81-6.3-5.62l-1.58,0.09
	c-3.29,0.19-5.81,3.01-5.62,6.3l0.18,3.13l-2.88,0.16l-0.18-3.13c-0.19-3.29-3.01-5.81-6.3-5.62l-1.58,0.09
	c-3.29,0.19-5.81,3.01-5.62,6.3l0.18,3.13l-2.5,0.14l-0.18-3.13c-0.19-3.29-3.01-5.81-6.3-5.62l-1.58,0.09
	c-3.29,0.19-5.81,3.01-5.62,6.3l0.18,3.13l-2.5,0.14l-0.18-3.13c-0.19-3.29-3.01-5.81-6.3-5.62l-1.58,0.09
	c-3.29,0.19-5.81,3.01-5.62,6.3l0.18,3.13l-2.5,0.14l-0.18-3.13c-0.19-3.29-3.01-5.81-6.3-5.62l-1.58,0.09
	c-3.29,0.19-5.81,3.01-5.62,6.3l0.18,3.13l-2.53,0.14l-0.18-3.13c-0.19-3.29-3.01-5.81-6.3-5.62l-1.58,0.09
	c-3.29,0.19-5.81,3.01-5.62,6.3l0.18,3.13l-2.5,0.14l-0.18-3.13c-0.19-3.29-3.01-5.81-6.3-5.62l-1.58,0.09
	c-3.29,0.19-5.81,3.01-5.62,6.3l0.18,3.13l-2.5,0.14l-0.18-3.13c-0.19-3.29-3.01-5.81-6.3-5.62l-1.58,0.09
	c-3.29,0.19-5.81,3.01-5.62,6.3l0.18,3.13l-2.5,0.14l-0.18-3.13c-0.19-3.29-3.01-5.81-6.3-5.62l-1.58,0.09
	c-3.29,0.19-5.81,3.01-5.62,6.3l0.18,3.13l-2.67,0.15L30.78,194.98z M32.37,222.38l2.67-0.15l0.18,3.08
	c0.19,3.29,3.01,5.81,6.3,5.62l1.58-0.09c3.29-0.19,5.81-3.01,5.62-6.3l-0.18-3.08l2.5-0.14l0.18,3.08c0.19,3.29,3.01,5.81,6.3,5.62
	l1.58-0.09c3.29-0.19,5.81-3.01,5.62-6.3l-0.18-3.08l2.5-0.14l0.18,3.08c0.19,3.29,3.01,5.81,6.3,5.62l1.58-0.09
	c3.29-0.19,5.81-3.01,5.62-6.3l-0.18-3.08l2.5-0.14l0.18,3.08c0.19,3.29,3.01,5.81,6.3,5.62l1.58-0.09c3.29-0.19,5.81-3.01,5.62-6.3
	l-0.18-3.08l2.53-0.14l0.18,3.08c0.19,3.29,3.01,5.81,6.3,5.62l1.58-0.09c3.29-0.19,5.81-3.01,5.62-6.3l-0.18-3.08l2.5-0.14
	l0.18,3.08c0.19,3.29,3.01,5.81,6.3,5.62l1.58-0.09c3.29-0.19,5.81-3.01,5.62-6.3l-0.18-3.08l2.5-0.14l0.18,3.08
	c0.19,3.29,3.01,5.81,6.3,5.62l1.58-0.09c3.29-0.19,5.81-3.01,5.62-6.3l-0.18-3.08l2.5-0.14l0.18,3.08c0.19,3.29,3.01,5.81,6.3,5.62
	l1.58-0.09c3.29-0.19,5.81-3.01,5.62-6.3l-0.18-3.08l2.88-0.16l0.18,3.08c0.19,3.29,3.01,5.81,6.3,5.62l1.58-0.09
	c3.29-0.19,5.81-3.01,5.62-6.3l-0.18-3.08l2.5-0.14l0.18,3.08c0.19,3.29,3.01,5.81,6.3,5.62l1.58-0.09c3.29-0.19,5.81-3.01,5.62-6.3
	l-0.18-3.08l72.05-4.11l1.32,22.76l-168.57,9.62l-0.18-3.08c-0.19-3.29-3.01-5.81-6.3-5.62l-1.58,0.09
	c-3.29,0.19-5.81,3.01-5.62,6.3l0.18,3.08l-2.5,0.14l-0.18-3.08c-0.19-3.29-3.01-5.81-6.3-5.62l-1.58,0.09
	c-3.29,0.19-5.81,3.01-5.62,6.3l0.18,3.08l-2.5,0.14l-0.18-3.08c-0.19-3.29-3.01-5.81-6.3-5.62l-1.58,0.09
	c-3.29,0.19-5.81,3.01-5.62,6.3l0.18,3.08l-2.5,0.14l-0.18-3.08c-0.19-3.29-3.01-5.81-6.3-5.62l-1.58,0.09
	c-3.29,0.19-5.81,3.01-5.62,6.3l0.18,3.08l-2.55,0.15L32.37,222.38z M33.91,249.01l2.55-0.15l0.18,3.13
	c0.19,3.29,3.01,5.81,6.3,5.62l1.58-0.09c3.29-0.19,5.81-3.01,5.62-6.3l-0.18-3.13l2.5-0.14l0.18,3.13c0.19,3.29,3.01,5.81,6.3,5.62
	l1.58-0.09c3.29-0.19,5.81-3.01,5.62-6.3l-0.18-3.13l2.5-0.14l0.18,3.13c0.19,3.29,3.01,5.81,6.3,5.62l1.58-0.09
	c3.29-0.19,5.81-3.01,5.62-6.3l-0.18-3.13l2.5-0.14l0.18,3.13c0.19,3.29,3.01,5.81,6.3,5.62l1.58-0.09c3.29-0.19,5.81-3.01,5.62-6.3
	l-0.18-3.13l168.57-9.62l1.22,21l-72.44,4.13l-0.17-3.03c-0.19-3.29-3.01-5.81-6.3-5.62l-1.58,0.09c-3.29,0.19-5.81,3.01-5.62,6.3
	l0.17,3.03l-2.5,0.14l-0.17-3.03c-0.19-3.29-3.01-5.81-6.3-5.62l-1.58,0.09c-3.29,0.19-5.81,3.01-5.62,6.3l0.17,3.03l-2.88,0.16
	l-0.17-3.03c-0.19-3.29-3.01-5.81-6.3-5.62l-1.58,0.09c-3.29,0.19-5.81,3.01-5.62,6.3l0.17,3.03l-2.5,0.14l-0.17-3.03
	c-0.19-3.29-3.01-5.81-6.3-5.62l-1.58,0.09c-3.29,0.19-5.81,3.01-5.62,6.3l0.17,3.03l-2.5,0.14l-0.17-3.03
	c-0.19-3.29-3.01-5.81-6.3-5.62l-1.58,0.09c-3.29,0.19-5.81,3.01-5.62,6.3l0.17,3.03l-2.5,0.14l-0.17-3.03
	c-0.19-3.29-3.01-5.81-6.3-5.62l-1.58,0.09c-3.29,0.19-5.81,3.01-5.62,6.3l0.17,3.03l-2.53,0.14l-0.17-3.03
	c-0.19-3.29-3.01-5.81-6.3-5.62l-1.58,0.09c-3.29,0.19-5.81,3.01-5.62,6.3l0.17,3.03l-2.5,0.14l-0.17-3.03
	c-0.19-3.29-3.01-5.81-6.3-5.62l-1.58,0.09c-3.29,0.19-5.81,3.01-5.62,6.3l0.17,3.03l-2.5,0.14l-0.17-3.03
	c-0.19-3.29-3.01-5.81-6.3-5.62l-1.58,0.09c-3.29,0.19-5.81,3.01-5.62,6.3l0.17,3.03l-2.5,0.14l-0.17-3.03
	c-0.19-3.29-3.01-5.81-6.3-5.62l-1.58,0.09c-3.29,0.19-5.81,3.01-5.62,6.3l0.17,3.03l-2.28,0.13L33.91,249.01z M35.35,273.87
	l2.27-0.13l0.18,3.18c0.19,3.29,3.01,5.81,6.3,5.62l1.58-0.09c3.29-0.19,5.81-3.01,5.62-6.3l-0.18-3.18l2.5-0.14l0.18,3.18
	c0.19,3.29,3.01,5.81,6.3,5.62l1.58-0.09c3.29-0.19,5.81-3.01,5.62-6.3l-0.18-3.18l2.5-0.14l0.18,3.18c0.19,3.29,3.01,5.81,6.3,5.62
	l1.58-0.09c3.29-0.19,5.81-3.01,5.62-6.3l-0.18-3.18l2.5-0.14l0.18,3.18c0.19,3.29,3.01,5.81,6.3,5.62l1.58-0.09
	c3.29-0.19,5.81-3.01,5.62-6.3l-0.18-3.18l2.53-0.14l0.18,3.18c0.19,3.29,3.01,5.81,6.3,5.62l1.58-0.09
	c3.29-0.19,5.81-3.01,5.62-6.3l-0.18-3.18l2.5-0.14l0.18,3.18c0.19,3.29,3.01,5.81,6.3,5.62l1.58-0.09c3.29-0.19,5.81-3.01,5.62-6.3
	l-0.18-3.18l2.5-0.14l0.18,3.18c0.19,3.29,3.01,5.81,6.3,5.62l1.58-0.09c3.29-0.19,5.81-3.01,5.62-6.3l-0.18-3.18l2.5-0.14
	l0.18,3.18c0.19,3.29,3.01,5.81,6.3,5.62l1.58-0.09c3.29-0.19,5.81-3.01,5.62-6.3l-0.18-3.18l2.88-0.16l0.18,3.18
	c0.19,3.29,3.01,5.81,6.3,5.62l1.58-0.09c3.29-0.19,5.81-3.01,5.62-6.3l-0.18-3.18l2.5-0.14l0.18,3.18c0.19,3.29,3.01,5.81,6.3,5.62
	l1.58-0.09c3.29-0.19,5.81-3.01,5.62-6.3l-0.18-3.18l72.44-4.13l1.22,21l-72.56,4.14l-0.18-3.18c-0.19-3.29-3.01-5.81-6.3-5.62
	l-1.58,0.09c-3.29,0.19-5.81,3.01-5.62,6.3l0.18,3.18l-2.5,0.14l-0.18-3.18c-0.19-3.29-3.01-5.81-6.3-5.62l-1.58,0.09
	c-3.29,0.19-5.81,3.01-5.62,6.3l0.18,3.18l-2.88,0.16l-0.18-3.18c-0.19-3.29-3.01-5.81-6.3-5.62l-1.58,0.09
	c-3.29,0.19-5.81,3.01-5.62,6.3l0.18,3.18l-2.5,0.14l-0.18-3.18c-0.19-3.29-3.01-5.81-6.3-5.62l-1.58,0.09
	c-3.29,0.19-5.81,3.01-5.62,6.3l0.18,3.18l-2.5,0.14l-0.18-3.18c-0.19-3.29-3.01-5.81-6.3-5.62l-1.58,0.09
	c-3.29,0.19-5.81,3.01-5.62,6.3l0.18,3.18l-2.5,0.14l-0.18-3.18c-0.19-3.29-3.01-5.81-6.3-5.62l-1.58,0.09
	c-3.29,0.19-5.81,3.01-5.62,6.3l0.18,3.18l-2.53,0.14l-0.18-3.18c-0.19-3.29-3.01-5.81-6.3-5.62l-1.58,0.09
	c-3.29,0.19-5.81,3.01-5.62,6.3l0.18,3.18l-2.5,0.14l-0.18-3.18c-0.19-3.29-3.01-5.81-6.3-5.62l-1.58,0.09
	c-3.29,0.19-5.81,3.01-5.62,6.3l0.18,3.18l-2.5,0.14l-0.18-3.18c-0.19-3.29-3.01-5.81-6.3-5.62l-1.58,0.09
	c-3.29,0.19-5.81,3.01-5.62,6.3l0.18,3.18l-2.5,0.14l-0.18-3.18c-0.19-3.29-3.01-5.81-6.3-5.62l-1.58,0.09
	c-3.29,0.19-5.81,3.01-5.62,6.3l0.18,3.18l-2.16,0.12L35.35,273.87z M36.8,298.74l2.15-0.12l0.17,3.03c0.19,3.29,3.01,5.81,6.3,5.62
	l1.58-0.09c3.29-0.19,5.81-3.01,5.62-6.3l-0.17-3.03l2.5-0.14l0.17,3.03c0.19,3.29,3.01,5.81,6.3,5.62l1.58-0.09
	c3.29-0.19,5.81-3.01,5.62-6.3l-0.17-3.03l2.5-0.14l0.17,3.03c0.19,3.29,3.01,5.81,6.3,5.62l1.58-0.09c3.29-0.19,5.81-3.01,5.62-6.3
	l-0.17-3.03l2.5-0.14l0.17,3.03c0.19,3.29,3.01,5.81,6.3,5.62l1.58-0.09c3.29-0.19,5.81-3.01,5.62-6.3l-0.17-3.03l2.53-0.14
	l0.17,3.03c0.19,3.29,3.01,5.81,6.3,5.62l1.58-0.09c3.29-0.19,5.81-3.01,5.62-6.3l-0.17-3.03l2.5-0.14l0.17,3.03
	c0.19,3.29,3.01,5.81,6.3,5.62l1.58-0.09c3.29-0.19,5.81-3.01,5.62-6.3l-0.17-3.03l2.5-0.14l0.17,3.03c0.19,3.29,3.01,5.81,6.3,5.62
	l1.58-0.09c3.29-0.19,5.81-3.01,5.62-6.3l-0.17-3.03l2.5-0.14l0.17,3.03c0.19,3.29,3.01,5.81,6.3,5.62l1.58-0.09
	c3.29-0.19,5.81-3.01,5.62-6.3l-0.17-3.03l2.88-0.16l0.17,3.03c0.19,3.29,3.01,5.81,6.3,5.62l1.58-0.09
	c3.29-0.19,5.81-3.01,5.62-6.3l-0.17-3.03l2.5-0.14l0.17,3.03c0.19,3.29,3.01,5.81,6.3,5.62l1.58-0.09c3.29-0.19,5.81-3.01,5.62-6.3
	l-0.17-3.03l72.57-4.14l1.22,21l-72.19,4.12l-0.19-3.33c-0.19-3.29-3.01-5.81-6.3-5.62l-1.58,0.09c-3.29,0.19-5.81,3.01-5.62,6.3
	l0.19,3.33l-2.5,0.14l-0.19-3.33c-0.19-3.29-3.01-5.81-6.3-5.62l-1.58,0.09c-3.29,0.19-5.81,3.01-5.62,6.3l0.19,3.33l-2.88,0.16
	l-0.19-3.33c-0.19-3.29-3.01-5.81-6.3-5.62l-1.58,0.09c-3.29,0.19-5.81,3.01-5.62,6.3l0.19,3.33l-2.5,0.14l-0.19-3.33
	c-0.19-3.29-3.01-5.81-6.3-5.62l-1.58,0.09c-3.29,0.19-5.81,3.01-5.62,6.3l0.19,3.33l-2.5,0.14l-0.19-3.33
	c-0.19-3.29-3.01-5.81-6.3-5.62l-1.58,0.09c-3.29,0.19-5.81,3.01-5.62,6.3l0.19,3.33l-2.5,0.14l-0.19-3.33
	c-0.19-3.29-3.01-5.81-6.3-5.62l-1.58,0.09c-3.29,0.19-5.81,3.01-5.62,6.3l0.19,3.33l-2.53,0.14l-0.19-3.33
	c-0.19-3.29-3.01-5.81-6.3-5.62l-1.58,0.09c-3.29,0.19-5.81,3.01-5.62,6.3l0.19,3.33l-2.5,0.14l-0.19-3.33
	c-0.19-3.29-3.01-5.81-6.3-5.62l-1.58,0.09c-3.29,0.19-5.81,3.01-5.62,6.3l0.19,3.33l-2.5,0.14l-0.19-3.33
	c-0.19-3.29-3.01-5.81-6.3-5.62l-1.58,0.09c-3.29,0.19-5.81,3.01-5.62,6.3l0.19,3.33l-2.5,0.14l-0.19-3.33
	c-0.19-3.29-3.01-5.81-6.3-5.62l-1.58,0.09c-3.29,0.19-5.81,3.01-5.62,6.3l0.19,3.33l-2.53,0.14L36.8,298.74z M38.9,335.05
	l-0.66-11.44l2.52-0.14l0.16,2.88c0.19,3.29,3.01,5.81,6.3,5.62l1.58-0.09c3.29-0.19,5.81-3.01,5.62-6.3l-0.16-2.88l2.5-0.14
	l0.16,2.88c0.19,3.29,3.01,5.81,6.3,5.62l1.58-0.09c3.29-0.19,5.81-3.01,5.62-6.3l-0.16-2.88l2.5-0.14l0.16,2.88
	c0.19,3.29,3.01,5.81,6.3,5.62l1.58-0.09c3.29-0.19,5.81-3.01,5.62-6.3l-0.16-2.88l2.5-0.14l0.16,2.88c0.19,3.29,3.01,5.81,6.3,5.62
	l1.58-0.09c3.29-0.19,5.81-3.01,5.62-6.3l-0.16-2.88l2.53-0.14l0.16,2.88c0.19,3.29,3.01,5.81,6.3,5.62l1.58-0.09
	c3.29-0.19,5.81-3.01,5.62-6.3l-0.16-2.88l2.5-0.14l0.16,2.88c0.19,3.29,3.01,5.81,6.3,5.62l1.58-0.09c3.29-0.19,5.81-3.01,5.62-6.3
	l-0.16-2.88l2.5-0.14l0.16,2.88c0.19,3.29,3.01,5.81,6.3,5.62l1.58-0.09c3.29-0.19,5.81-3.01,5.62-6.3l-0.16-2.88l2.5-0.14
	l0.16,2.88c0.19,3.29,3.01,5.81,6.3,5.62l1.58-0.09c3.29-0.19,5.81-3.01,5.62-6.3l-0.16-2.88l2.88-0.16l0.16,2.88
	c0.19,3.29,3.01,5.81,6.3,5.62l1.58-0.09c3.29-0.19,5.81-3.01,5.62-6.3l-0.16-2.88l2.5-0.14l0.16,2.88c0.19,3.29,3.01,5.81,6.3,5.62
	l1.58-0.09c3.29-0.19,5.81-3.01,5.62-6.3l-0.16-2.88l72.19-4.12l0.65,11.22L38.9,335.05z"/>
</svg>
