<?xml version="1.0" encoding="utf-8"?>
<!-- Generator: Adobe Illustrator 25.0.1, SVG Export Plug-In . SVG Version: 6.00 Build 0)  -->
<svg version="1.1" id="Layer_1" xmlns="http://www.w3.org/2000/svg" xmlns:xlink="http://www.w3.org/1999/xlink" x="0px" y="0px"
	 viewBox="0 0 546 302" style="enable-background:new 0 0 546 302;" xml:space="preserve">
<style type="text/css">
	.st0{fill:none;stroke:#FFFFFF;stroke-miterlimit:10;}
</style>
<g>
	<path class="st0" d="M311.23,143.81c0,0,24.76,38.83,34.17,122.07"/>
	<path class="st0" d="M416.79,99.89c0,0,33.72,59.18,30.69,126.03"/>
	<g>
		<path class="st0" d="M499.98,78.39c-25.19-49.84-181.94-57.53-181.94-57.53S212.02,2.93,132.13,3.77
			C51.27,4.62,22.31,13.03,12.24,17.95c-3.07,1.5-5.36,4.25-6.36,7.52l-1.1,3.58c-0.8,2.58,0.92,5.27,3.6,5.62
			c13.29,1.72,51.8,9.89,111.48,48.5c9.71,6.29,15.69,17.02,21.37,27.1c7.04,12.48,18.08,39.99,68.88,61.25
			c0,0,14.21,5.41,14.96,34.4c0.75,28.99,31.15,71.72,31.15,71.72s125.72,8.7,267.27-102.19
			C523.48,175.46,525.17,128.23,499.98,78.39z M151.96,98.44c-5.61-10.12-12.72-19.36-21.18-27.25
			c-21.8-20.33-69.43-35.95-99.76-43.29c-0.99-0.24-0.82-1.7,0.21-1.7l99.99-6.55c27.19-1.78,54.5-0.84,81.51,2.81l225.31,30.47
			c1.54,0.21,1.8,2.33,0.35,2.9c-48.63,19.12-152.59,67.49-215.31,100.88c-2.85,1.52-6.26,1.58-9.15,0.13
			C172,135.72,158.34,109.95,151.96,98.44z M231.66,165.26c-2.45-1.05-4.82-2.13-7.14-3.22L451.75,56.14l14.71,7.8
			C397.44,131.58,231.66,165.26,231.66,165.26z"/>
		<g>
			<path class="st0" d="M244.37,289.41c10.35-4.11,11.84-11.76,11.84-11.76s3.2,5.78-3.1,20.31"/>
			<path class="st0" d="M533.71,184.06c-2.32-7.3-10.24-8.6-10.24-8.6s10.69-6.46,18.27,3.71"/>
		</g>
	</g>
</g>
</svg>
