<?xml version="1.0" encoding="utf-8"?>
<!-- Generator: Adobe Illustrator 25.0.1, SVG Export Plug-In . SVG Version: 6.00 Build 0)  -->
<svg version="1.1" id="Layer_1" xmlns="http://www.w3.org/2000/svg" xmlns:xlink="http://www.w3.org/1999/xlink" x="0px" y="0px"
	 viewBox="0 0 759 675" style="enable-background:new 0 0 759 675;" xml:space="preserve">
<style type="text/css">
	.st0{fill:none;stroke:#FFFFFF;stroke-miterlimit:10;}
</style>
<g>
	<path class="st0" d="M277.61,13.51c0,0,176.77,104.48,191.19,263.88c0,0,10.98,127.39,80.09,204.66s194.42,106.83,194.42,106.83
		l-267.87,73.54c0,0-105.22-35.07-174.33-112.34s-80.09-204.66-80.09-204.66C206.6,186.02,16.74,85.13,16.74,85.13L277.61,13.51z"/>
	<g>
		<line class="st0" x1="24.47" y1="83.06" x2="12.81" y2="74.92"/>
		<line class="st0" x1="16.74" y1="85.13" x2="4.99" y2="78.88"/>
		<line class="st0" x1="34.1" y1="80.37" x2="21.86" y2="71.28"/>
		<line class="st0" x1="42.23" y1="78.13" x2="29.69" y2="69.09"/>
		<line class="st0" x1="50.72" y1="75.8" x2="37.53" y2="67.39"/>
		<line class="st0" x1="58.59" y1="73.64" x2="47.24" y2="65.02"/>
		<line class="st0" x1="66.54" y1="71.46" x2="55.1" y2="62.53"/>
		<line class="st0" x1="75.31" y1="69.05" x2="64.31" y2="60.12"/>
		<line class="st0" x1="83.98" y1="66.67" x2="73.38" y2="57.22"/>
		<line class="st0" x1="93.19" y1="64.14" x2="81.85" y2="54.71"/>
		<line class="st0" x1="103.27" y1="61.37" x2="90.59" y2="52.35"/>
		<line class="st0" x1="112.92" y1="58.59" x2="99.33" y2="49.08"/>
		<line class="st0" x1="121.6" y1="56.33" x2="108.81" y2="46.59"/>
		<line class="st0" x1="129.67" y1="54.13" x2="116.62" y2="45.05"/>
		<line class="st0" x1="136.07" y1="52.37" x2="125" y2="43.42"/>
		<line class="st0" x1="146.29" y1="49.81" x2="134.06" y2="39.76"/>
		<line class="st0" x1="151.49" y1="48.14" x2="140.15" y2="38.71"/>
		<line class="st0" x1="160.35" y1="45.92" x2="148.62" y2="35.73"/>
		<line class="st0" x1="169.75" y1="43.12" x2="157.79" y2="32.41"/>
		<line class="st0" x1="177.26" y1="41.06" x2="166.52" y2="30.51"/>
		<line class="st0" x1="185.53" y1="38.79" x2="174.78" y2="27.96"/>
		<line class="st0" x1="192.02" y1="36.74" x2="182.02" y2="26.48"/>
		<line class="st0" x1="199.1" y1="34.8" x2="188.99" y2="25.13"/>
		<line class="st0" x1="206.18" y1="32.93" x2="196.74" y2="22.73"/>
		<line class="st0" x1="215.43" y1="30.58" x2="203.72" y2="20.37"/>
		<line class="st0" x1="277.61" y1="13.51" x2="263.72" y2="5.13"/>
		<line class="st0" x1="270.81" y1="15.38" x2="258.46" y2="7.28"/>
		<line class="st0" x1="263.1" y1="17.5" x2="252.26" y2="8.42"/>
		<line class="st0" x1="256.76" y1="19.24" x2="245.52" y2="10.23"/>
		<line class="st0" x1="248.92" y1="21.39" x2="238.42" y2="11.67"/>
		<line class="st0" x1="242.6" y1="23.13" x2="233.35" y2="13.68"/>
		<line class="st0" x1="235.87" y1="24.97" x2="225.75" y2="15.39"/>
		<line class="st0" x1="229.12" y1="26.83" x2="220.12" y2="15.86"/>
		<line class="st0" x1="222.08" y1="28.5" x2="213.28" y2="17.63"/>
	</g>
	<g>
		<g>
			<line class="st0" x1="728.67" y1="592.94" x2="740.32" y2="601.08"/>
			<line class="st0" x1="736.39" y1="590.87" x2="749.09" y2="595.92"/>
			<line class="st0" x1="719.04" y1="595.63" x2="731.27" y2="604.72"/>
			<line class="st0" x1="710.91" y1="597.87" x2="723.44" y2="606.91"/>
			<line class="st0" x1="702.41" y1="600.2" x2="715.6" y2="608.61"/>
			<line class="st0" x1="694.55" y1="602.36" x2="705.89" y2="610.98"/>
			<line class="st0" x1="686.59" y1="604.54" x2="698.03" y2="613.47"/>
			<line class="st0" x1="677.82" y1="606.95" x2="688.82" y2="615.88"/>
			<line class="st0" x1="669.15" y1="609.33" x2="679.75" y2="618.78"/>
			<line class="st0" x1="659.94" y1="611.86" x2="671.28" y2="621.29"/>
			<line class="st0" x1="649.86" y1="614.63" x2="662.55" y2="623.65"/>
			<line class="st0" x1="640.21" y1="617.41" x2="653.8" y2="626.92"/>
			<line class="st0" x1="631.53" y1="619.67" x2="644.32" y2="629.41"/>
			<line class="st0" x1="623.46" y1="621.87" x2="636.51" y2="630.95"/>
			<line class="st0" x1="617.06" y1="623.63" x2="628.13" y2="632.58"/>
			<line class="st0" x1="606.84" y1="626.19" x2="619.07" y2="636.24"/>
			<line class="st0" x1="601.65" y1="627.86" x2="612.98" y2="637.29"/>
			<line class="st0" x1="592.78" y1="630.08" x2="604.51" y2="640.27"/>
			<line class="st0" x1="583.38" y1="632.88" x2="595.34" y2="643.59"/>
			<line class="st0" x1="575.88" y1="634.94" x2="586.61" y2="645.49"/>
			<line class="st0" x1="567.6" y1="637.21" x2="578.35" y2="648.04"/>
			<line class="st0" x1="561.11" y1="639.26" x2="571.11" y2="649.52"/>
			<line class="st0" x1="554.03" y1="641.2" x2="564.14" y2="650.87"/>
			<line class="st0" x1="546.95" y1="643.07" x2="556.39" y2="653.27"/>
			<line class="st0" x1="537.7" y1="645.42" x2="549.41" y2="655.63"/>
			<line class="st0" x1="475.52" y1="662.49" x2="489.41" y2="670.87"/>
			<line class="st0" x1="482.32" y1="660.62" x2="494.67" y2="668.72"/>
			<line class="st0" x1="490.03" y1="658.5" x2="500.87" y2="667.58"/>
			<line class="st0" x1="496.37" y1="656.76" x2="507.61" y2="665.77"/>
			<line class="st0" x1="504.21" y1="654.61" x2="514.71" y2="664.33"/>
			<line class="st0" x1="510.53" y1="652.87" x2="519.79" y2="662.32"/>
			<line class="st0" x1="517.27" y1="651.03" x2="527.38" y2="660.61"/>
			<line class="st0" x1="524.01" y1="649.17" x2="533.01" y2="660.14"/>
			<line class="st0" x1="531.05" y1="647.5" x2="539.85" y2="658.37"/>
		</g>
		<line class="st0" x1="743.32" y1="588.88" x2="755.16" y2="591.02"/>
	</g>
</g>
</svg>
