<?xml version="1.0" encoding="utf-8"?>
<!-- Generator: Adobe Illustrator 25.0.1, SVG Export Plug-In . SVG Version: 6.00 Build 0)  -->
<svg version="1.1" id="Layer_1" xmlns="http://www.w3.org/2000/svg" xmlns:xlink="http://www.w3.org/1999/xlink" x="0px" y="0px"
	 viewBox="0 0 310 221" style="enable-background:new 0 0 310 221;" xml:space="preserve">
<style type="text/css">
	.st0{fill:none;stroke:#FFFFFF;stroke-miterlimit:10;}
</style>
<g>
	<path class="st0" d="M2.12,39.48l25.21,179.14c0,0,118.65-37.64,143.86-12.71c0,0,34.11-33.82,136.45-12.6L270.56,10.27
		c0,0-79.85-24.44-128.79,10.04C141.77,20.31,88.13-15.44,2.12,39.48z"/>
	<path class="st0" d="M11.92,47.63l23.45,158.44c0,0,84.34-33.26,134.73-15.9c0,0,44.62-38.24,124.66-9.47L261.04,19.87
		c0,0-54.59-23.57-115.31,9.59C145.73,29.46,76.53-3.41,11.92,47.63z"/>
	<path class="st0" d="M20.79,51.87c-0.05-0.59,55.56-31.71,114.85-14.41"/>
	<path class="st0" d="M23.65,61.69C23.61,61.1,79.21,29.98,138.5,47.27"/>
	<path class="st0" d="M23.65,71.51C23.61,70.92,79.21,39.8,138.5,57.09"/>
	<path class="st0" d="M25.79,81.32c-0.05-0.59,55.56-31.71,114.85-14.41"/>
	<path class="st0" d="M154.87,38.28c-0.01-0.59,50.94-29.37,102.92-9.63"/>
	<path class="st0" d="M157.31,46.55c-0.01-0.59,50.94-29.37,102.92-9.63"/>
</g>
</svg>
