<?xml version="1.0" encoding="utf-8"?>
<!-- Generator: Adobe Illustrator 25.0.1, SVG Export Plug-In . SVG Version: 6.00 Build 0)  -->
<svg version="1.1" id="Layer_1" xmlns="http://www.w3.org/2000/svg" xmlns:xlink="http://www.w3.org/1999/xlink" x="0px" y="0px"
	 viewBox="0 0 346 189" style="enable-background:new 0 0 346 189;" xml:space="preserve">
<style type="text/css">
	.st0{fill:none;stroke:#FFFFFF;stroke-miterlimit:10;}
</style>
<g>
	<path class="st0" d="M343.31,185.68c0,0-86.89-27.57-51.67-161.87l-66.17-19.9l-40.64,134.1l25.07,7.54l6.67-41.03
		C216.58,104.52,222.66,149.39,343.31,185.68z"/>
	<path class="st0" d="M3.98,108.97c0,0,87.68,24.94,132.95-106.34l66.17,19.9l-40.64,134.1l-25.07-7.54l17.23-37.85
		C154.61,111.24,117.2,143.02,3.98,108.97z"/>
	<path class="st0" d="M252.59,12.06c0,0-15.99,57.77-20.31,117.05"/>
	<path class="st0" d="M178.16,15.03c0,0-15.79,53.23-47.13,106.02"/>
</g>
</svg>
