<?xml version="1.0" encoding="utf-8"?>
<!-- Generator: Adobe Illustrator 25.0.1, SVG Export Plug-In . SVG Version: 6.00 Build 0)  -->
<svg version="1.1" id="Layer_1" xmlns="http://www.w3.org/2000/svg" xmlns:xlink="http://www.w3.org/1999/xlink" x="0px" y="0px"
	 viewBox="0 0 378 189" style="enable-background:new 0 0 378 189;" xml:space="preserve">
<style type="text/css">
	.st0{fill:none;stroke:#FFFFFF;stroke-miterlimit:10;}
</style>
<g>
	<g>
		<path class="st0" d="M16.2,6.77c0,0-23.48,149.7,156.69,171.8s195.45-128.6,195.45-128.6L16.2,6.77z"/>
		<polyline class="st0" points="20.33,64.39 39.03,48.81 54.22,68.54 73.12,52.99 86.31,72.48 105.76,56.99 119.38,76.54 
			143.97,61.2 156.94,80.67 171.91,65.11 185.36,84.63 205.85,69.27 220.77,88.97 243.15,72.89 262.99,94.15 286.45,78.21 
			298.59,98.52 321.83,82.55 337.07,103.24 358.2,87.01 		"/>
	</g>
	<path class="st0" d="M42.06,111.66c0,0,140.82,61.65,274.56,33.68"/>
</g>
</svg>
