<?xml version="1.0" encoding="utf-8"?>
<!-- Generator: Adobe Illustrator 25.0.1, SVG Export Plug-In . SVG Version: 6.00 Build 0)  -->
<svg version="1.1" id="Layer_1" xmlns="http://www.w3.org/2000/svg" xmlns:xlink="http://www.w3.org/1999/xlink" x="0px" y="0px"
	 viewBox="0 0 202 221" style="enable-background:new 0 0 202 221;" xml:space="preserve">
<style type="text/css">
	.st0{fill:none;stroke:#FFFFFF;stroke-miterlimit:10;}
</style>
<path class="st0" d="M196.6,5.22l-10.32,0.99c0,0,14.72,77.85-72.26,88.59l-0.81-8.44c70.29-7.52,60.95-78.99,60.95-78.99
	l-10.32,0.99c0,0,6.68,59.75-51.43,69.15l-0.01,0.4l-0.83-8.62c45.08-9.65,39.8-59.73,39.8-59.73l-9.35,0.9
	c0,0,3.03,41.93-31.43,48.7l-4.35-45.26l-12.58,1.21l4.36,45.33c-35.21,0.01-40.09-41.89-40.09-41.89l-9.35,0.9
	c0,0,4.14,50.33,50.41,51.08l0.79,8.21c-57.21,3.63-63.66-58.09-63.66-58.09l-10.32,0.99c0,0,4.65,71.73,74.84,65.93l0.81,8.44
	c-78.15,9.48-87.76-73.2-87.76-73.2L3.36,23.8c0,0,4.45,89.98,99.03,82.01l9.91,103.09l-15.99,7.8l29.17-2.8l0,0l16.05-1.54
	l-16.64-4.59l-9.92-103.15C209.65,94.56,196.6,5.22,196.6,5.22z"/>
</svg>
