<?xml version="1.0" encoding="utf-8"?>
<!-- Generator: Adobe Illustrator 25.0.1, SVG Export Plug-In . SVG Version: 6.00 Build 0)  -->
<svg version="1.1" id="Layer_1" xmlns="http://www.w3.org/2000/svg" xmlns:xlink="http://www.w3.org/1999/xlink" x="0px" y="0px"
	 viewBox="0 0 736 399" style="enable-background:new 0 0 736 399;" xml:space="preserve">
<style type="text/css">
	.st0{fill:none;stroke:#FFFFFF;stroke-miterlimit:10;}
</style>
<g>
	<path class="st0" d="M709.24,394.92H25.94c-11.4,0-20.64-9.24-20.64-20.64V132.85c0-11.4,9.24-20.64,20.64-20.64h683.29
		c11.4,0,20.64,9.24,20.64,20.64v241.43C729.88,385.67,720.64,394.92,709.24,394.92z"/>
	<path class="st0" d="M706.39,112.21H28.79c-12.97,0-23.49-10.52-23.49-23.49V28.04c0-12.97,10.52-23.49,23.49-23.49h677.6
		c12.97,0,23.49,10.52,23.49,23.49v60.68C729.88,101.69,719.36,112.21,706.39,112.21z"/>
	<path class="st0" d="M368.88,75.46c3.04-0.6,5.33-3.28,5.33-6.5c0-3.66-2.97-6.62-6.62-6.62c-3.66,0-6.62,2.97-6.62,6.62
		c0,3.22,2.29,5.89,5.33,6.5l-2.02,5.76l-3.31,9.46h3.31h3.31h0h3.31h3.31l-3.31-9.46L368.88,75.46z"/>
</g>
</svg>
