<?xml version="1.0" encoding="utf-8"?>
<!-- Generator: Adobe Illustrator 25.0.1, SVG Export Plug-In . SVG Version: 6.00 Build 0)  -->
<svg version="1.1" id="Layer_1" xmlns="http://www.w3.org/2000/svg" xmlns:xlink="http://www.w3.org/1999/xlink" x="0px" y="0px"
	 viewBox="0 0 198 131" style="enable-background:new 0 0 198 131;" xml:space="preserve">
<style type="text/css">
	.st0{fill:none;stroke:#FFFFFF;stroke-miterlimit:10;}
</style>
<g>
	<path class="st0" d="M55.63,37.71c2.89-0.91,4.96-3.42,4.96-6.37c0-3.72-3.29-6.74-7.35-6.74c-4.06,0-7.35,3.02-7.35,6.74
		c0,2.99,2.12,5.52,5.05,6.4L2.28,82.59l51.25,46.79l51.01-47.01L55.63,37.71z M53.34,121.03l-41.95-38.3l41.75-38.48l41.95,38.3
		L53.34,121.03z"/>
	<path class="st0" d="M146.81,14.74c2.89-0.91,4.96-3.42,4.96-6.37c0-3.72-3.29-6.74-7.35-6.74c-4.06,0-7.35,3.02-7.35,6.74
		c0,2.99,2.12,5.52,5.05,6.4L93.47,59.61l51.25,46.79l51.01-47.01L146.81,14.74z M144.52,98.05l-41.95-38.3l41.76-38.48l41.95,38.3
		L144.52,98.05z"/>
</g>
</svg>
