<?xml version="1.0" encoding="utf-8"?>
<!-- Generator: Adobe Illustrator 25.0.1, SVG Export Plug-In . SVG Version: 6.00 Build 0)  -->
<svg version="1.1" id="Layer_1" xmlns="http://www.w3.org/2000/svg" xmlns:xlink="http://www.w3.org/1999/xlink" x="0px" y="0px"
	 viewBox="0 0 293 405" style="enable-background:new 0 0 293 405;" xml:space="preserve">
<style type="text/css">
	.st0{fill:none;stroke:#FFFFFF;stroke-miterlimit:10;}
</style>
<g>
	<g>
		<path class="st0" d="M209.07,151.57c0,0-10.99,71.09,19.4,228.89"/>
		<path class="st0" d="M209.45,247.02c0,0-3.11-40.17-45.27-38.16C164.19,208.86,162.38,244.36,209.45,247.02z"/>
		<path class="st0" d="M214.31,291.84c0,0,40.17,7.7,48.09-43.72C262.4,248.12,220.07,246.71,214.31,291.84z"/>
		<circle class="st0" cx="213.49" cy="84.74" r="10.42"/>
		<path class="st0" d="M266.41,133.34c4.15-4.15-5.31-20.32-21.11-36.12c-2.3-2.3-4.61-4.46-6.88-6.47
			c3.03,0.19,6.19,0.29,9.44,0.29c22.35,0,40.47-4.75,40.47-10.62c0-5.86-18.12-10.62-40.47-10.62c-3.25,0-6.41,0.1-9.44,0.29
			c2.28-2.01,4.58-4.17,6.88-6.47c15.81-15.81,25.26-31.98,21.11-36.12c-4.15-4.15-20.32,5.31-36.12,21.11
			c-2.3,2.3-4.46,4.61-6.47,6.88c0.19-3.03,0.29-6.19,0.29-9.44c0-22.35-4.75-40.47-10.62-40.47c-5.86,0-10.62,18.12-10.62,40.47
			c0,3.25,0.1,6.41,0.29,9.44c-2.01-2.28-4.17-4.58-6.47-6.88c-15.81-15.81-31.98-25.26-36.12-21.11
			c-4.15,4.15,5.31,20.32,21.11,36.12c2.3,2.3,4.61,4.46,6.88,6.47c-3.03-0.19-6.19-0.29-9.44-0.29c-22.35,0-40.47,4.75-40.47,10.62
			c0,5.86,18.12,10.62,40.47,10.62c3.25,0,6.41-0.1,9.44-0.29c-2.28,2.01-4.58,4.17-6.88,6.47c-15.81,15.81-25.26,31.98-21.11,36.12
			c4.15,4.15,20.32-5.31,36.12-21.11c2.3-2.3,4.46-4.61,6.47-6.88c-0.19,3.03-0.29,6.19-0.29,9.44c0,22.35,4.75,40.47,10.62,40.47
			c5.86,0,10.62-18.12,10.62-40.47c0-3.25-0.1-6.41-0.29-9.44c2.01,2.28,4.17,4.58,6.47,6.88
			C246.09,128.03,262.26,137.49,266.41,133.34z"/>
	</g>
	<g>
		<path class="st0" d="M84.02,181.56c0,0,5.68,71.71,71.59,218.27"/>
		<path class="st0" d="M114.02,297.88c0,0-16.64-42.64-61.81-26.55C52.21,271.33,61.96,310.52,114.02,297.88z"/>
		<circle class="st0" cx="78.25" cy="154.28" r="10.42"/>
		<path class="st0" d="M152.07,166.56c0.96-5.78-16.13-13.44-38.18-17.11c-3.21-0.53-6.34-0.95-9.36-1.26
			c2.58-1.61,5.21-3.36,7.85-5.25c18.18-13,30.16-27.4,26.75-32.17c-3.41-4.77-20.91,1.9-39.1,14.9c-2.65,1.89-5.16,3.81-7.51,5.73
			c0.68-2.96,1.31-6.06,1.84-9.27c3.67-22.05,1.95-40.7-3.83-41.66c-5.78-0.96-13.44,16.13-17.11,38.18
			c-0.53,3.21-0.95,6.34-1.26,9.36c-1.61-2.58-3.36-5.21-5.25-7.85c-13-18.18-27.4-30.16-32.17-26.75
			c-4.77,3.41,1.9,20.91,14.9,39.1c1.89,2.65,3.81,5.16,5.73,7.51c-2.96-0.68-6.06-1.31-9.27-1.84c-22.05-3.67-40.7-1.95-41.66,3.83
			c-0.96,5.78,16.13,13.44,38.18,17.11c3.21,0.53,6.34,0.95,9.36,1.26c-2.58,1.61-5.21,3.36-7.85,5.25
			c-18.18,13-30.16,27.4-26.75,32.17s20.91-1.9,39.1-14.9c2.65-1.89,5.16-3.81,7.51-5.73c-0.68,2.96-1.31,6.06-1.84,9.27
			c-3.67,22.05-1.95,40.7,3.83,41.66s13.44-16.13,17.11-38.18c0.53-3.21,0.95-6.34,1.26-9.36c1.61,2.58,3.36,5.21,5.25,7.85
			c13,18.18,27.4,30.16,32.17,26.75c4.77-3.41-1.9-20.91-14.9-39.1c-1.89-2.65-3.81-5.16-5.73-7.51c2.96,0.68,6.06,1.31,9.27,1.84
			C132.45,174.06,151.1,172.34,152.07,166.56z"/>
	</g>
</g>
</svg>
