<?xml version="1.0" encoding="utf-8"?>
<!-- Generator: Adobe Illustrator 25.0.1, SVG Export Plug-In . SVG Version: 6.00 Build 0)  -->
<svg version="1.1" id="Layer_1" xmlns="http://www.w3.org/2000/svg" xmlns:xlink="http://www.w3.org/1999/xlink" x="0px" y="0px"
	 viewBox="0 0 475 795" style="enable-background:new 0 0 475 795;" xml:space="preserve">
<style type="text/css">
	.st0{fill:none;stroke:#FFFFFF;stroke-miterlimit:10;}
</style>
<g>
	<path class="st0" d="M227.47,763.24"/>
	<path class="st0" d="M441.51,668.48c51.37-28.14-2.89-50.33-2.89-50.33c45.98-23.33-2.7-47.04-2.7-47.04
		c48.63-26.49-2.8-48.77-2.8-48.77c48.68-25.55-2.61-45.45-2.61-45.45c48.71-25.07-2.7-46.87-2.7-46.87
		c46.34-27.32-2.64-45.93-2.64-45.93c47.22-24.99-2.7-46.87-2.7-46.87c44.41-21.98-2.31-40.25-2.31-40.25
		c48.85-22.71-2.59-44.98-2.59-44.98c47.39-22.15-2.42-42.14-2.42-42.14c45.71-25.38-2.64-45.99-2.64-45.99
		c47.08-27.42-2.66-46.22-2.66-46.22c51.81-29.4-2.96-51.53-2.96-51.53s27.37-83.3-44.43-32.86c0,0-23-47.25-55.26,0.12
		c0,0-30.04-41.98-57.27,3.89c0,0-25.73-34.38-55.41,2.53c0,0-30.5-32.84-54.5,4.59c0,0-21.07-34.49-47.76,2.18
		c0,0-15.66-33.2-38.93,1.77c0,0-54.18-20.08-23.27,34.98c-51.46,29.29,3.26,52.11,3.26,52.11c-51.23,28.38,3.15,50.31,3.15,50.31
		c-45.86,23.54,2.94,47.03,2.94,47.03c-48.5,26.72,3.05,48.75,3.05,48.75c-48.56,25.77,2.84,45.44,2.84,45.44
		c-48.59,25.3,2.93,46.86,2.93,46.86c-46.21,27.53,2.87,45.91,2.87,45.91C3.98,444.92,54,466.57,54,466.57
		c-44.3,22.18,2.52,40.23,2.52,40.23c-48.74,22.93,2.81,44.97,2.81,44.97c-47.28,22.36,2.63,42.13,2.63,42.13
		c-45.58,25.59,2.87,45.98,2.87,45.98c-46.95,27.64,2.89,46.21,2.89,46.21c-51.67,29.64-0.91,41.61-0.91,41.61
		c-38.4,64.6,33.13,41.36,33.13,41.36c23.28,29.53,40.72-1.86,40.72-1.86c23.99,27.59,49.83-2.27,49.83-2.27
		c27.87,31.65,53.55-2.44,53.55-2.44c31.16,34.3,52.96,0.91,52.96,0.91c30.05,32.31,56.71,1.86,56.71,1.86
		c34.61,39.44,61.89-1.37,61.89-1.37c68.9,21.7,28.9-43.29,28.9-43.29C496.12,691.54,441.51,668.48,441.51,668.48z M99.99,723.41
		L69.61,89.1l300.27-14.86l35.27,642.57L99.99,723.41z"/>
</g>
</svg>
