<?xml version="1.0" encoding="utf-8"?>
<!-- Generator: Adobe Illustrator 25.0.1, SVG Export Plug-In . SVG Version: 6.00 Build 0)  -->
<svg version="1.1" id="Layer_1" xmlns="http://www.w3.org/2000/svg" xmlns:xlink="http://www.w3.org/1999/xlink" x="0px" y="0px"
	 viewBox="0 0 235 112" style="enable-background:new 0 0 235 112;" xml:space="preserve">
<style type="text/css">
	.st0{fill:none;stroke:#FFFFFF;stroke-miterlimit:10;}
</style>
<g>
	<path class="st0" d="M232.85,7.71l-5.94-5.73c-1.13-1.08-2.84-1.27-4.17-0.45l-61.87,38.14l-1.5,0.8c-0.26,0.14-0.56,0.17-0.85,0.1
		c-1.4-0.36-2.88-0.65-4.45-0.35l-60.72,11.5c-3.63,0.69-6.15,3.71-6.44,7.15l-10.25,1.94c-1.53-3.09-4.98-4.98-8.6-4.3l-46.03,8.72
		l51.62-31.68c1.24-0.75,2.83-0.64,3.95,0.28l2.87,2.36c1.22,1,2.98,1.14,4.26,0.21c1.77-1.29,1.9-3.8,0.38-5.26l-6.07-5.85
		c-1.13-1.08-2.84-1.27-4.17-0.45L5.59,68.57C1.97,71.01,0,74.31,1.27,78.26l9.17,28.53c0.95,2.97,3.97,4.76,7.03,4.18l57.26-10.85
		c2.97-0.56,5.09-3.2,5-6.23l-2.01-27.06l10.49-1.99l8.24,25.65c0.95,2.97,3.97,4.76,7.03,4.18l57.26-10.85
		c2.97-0.56,5.09-3.2,5-6.23l-2.24-30.16c-0.02-0.3-0.02-0.45-0.03-0.61c-0.03-0.36,0.14-0.71,0.44-0.91l1.18-0.77l56.44-34.92
		c1.24-0.75,2.83-0.64,3.95,0.28l2.96,2.43c1.46,1.2,3.63,1,4.85-0.5C234.41,11.04,234.15,8.97,232.85,7.71z M72.48,67.48
		l1.55,23.84c0.04,2.39-1.8,4.51-4.34,4.99l-48.98,9.28c-2.62,0.5-5.17-0.89-5.95-3.22L7.29,79.9c-1.19-3.58,1.3-7.42,5.32-8.18
		l51.94-9.84C68.53,61.12,72.24,63.74,72.48,67.48z M158.49,51.22l1.55,23.84c0.04,2.39-1.8,4.51-4.34,4.99l-48.98,9.28
		c-2.62,0.5-5.17-0.89-5.95-3.22L93.3,63.63c-1.19-3.58,1.3-7.42,5.32-8.18l51.94-9.84C154.54,44.86,158.25,47.47,158.49,51.22z"/>
	<line class="st0" x1="5.59" y1="68.57" x2="24.37" y2="64.79"/>
</g>
</svg>
