<?xml version="1.0" encoding="utf-8"?>
<!-- Generator: Adobe Illustrator 25.0.1, SVG Export Plug-In . SVG Version: 6.00 Build 0)  -->
<svg version="1.1" id="Layer_1" xmlns="http://www.w3.org/2000/svg" xmlns:xlink="http://www.w3.org/1999/xlink" x="0px" y="0px"
	 viewBox="0 0 144 71" style="enable-background:new 0 0 144 71;" xml:space="preserve">
<style type="text/css">
	.st0{fill:none;stroke:#FFFFFF;stroke-miterlimit:10;}
</style>
<path class="st0" d="M94.81,2.24L34.12,12.39c0,0-41.1,3.82-31.09,57.07l10.09-1.69c-2.6-16.69,0.27-27.27,4.75-33.96l5.4,32.26
	l3.79-0.63l-5.95-35.59c1.89-1.9,3.87-3.33,5.76-4.39l6.51,38.93l3.79-0.63l-6.69-39.99c3.09-1.18,5.32-1.38,5.32-1.38l1.23-0.21
	l6.77,40.46l3.79-0.63l-6.77-40.46l6.63-1.11l6.77,40.46L58,60.26L51.23,19.8l6.63-1.11l6.77,40.46l3.79-0.63l-6.77-40.46l6.95-1.16
	l6.77,40.46l3.79-0.63l-6.77-40.46l6.41-1.07l6.77,40.46l3.79-0.63l-6.77-40.46l6.96-1.17l6.77,40.46l3.79-0.63l-6.77-40.46
	l3.14-0.52c0,0,1.56-0.39,4.05-0.44l6.73,40.23l3.79-0.63L104.47,12c2.49,0.32,5.37,1.04,8.34,2.51l5.95,35.59l3.79-0.63l-5.4-32.26
	c6.41,4.87,12.57,13.93,15.54,30.56l10.09-1.69C134.92-7.52,94.81,2.24,94.81,2.24z"/>
</svg>
