<?xml version="1.0" encoding="utf-8"?>
<!-- Generator: Adobe Illustrator 25.0.1, SVG Export Plug-In . SVG Version: 6.00 Build 0)  -->
<svg version="1.1" id="Layer_1" xmlns="http://www.w3.org/2000/svg" xmlns:xlink="http://www.w3.org/1999/xlink" x="0px" y="0px"
	 viewBox="0 0 72 155" style="enable-background:new 0 0 72 155;" xml:space="preserve">
<style type="text/css">
	.st0{fill:none;stroke:#FFFFFF;stroke-miterlimit:10;}
</style>
<path class="st0" d="M43.39,21.86l-1.76-7.64l-8.05,1.86l-0.69-3l7.47-1.72l-2.08-9.01L24.53,5.5l-0.53-2.32l-8.05,1.86l0.38,1.64
	L1.47,10.1l1.13,4.91l10.39,10.26l-7.63,1.68l3.07,13.34l14.62-3.37l20.93,90.79c-8.07,3.11-13.17,9.65-11.76,15.77
	c1.61,6.99,11.12,10.77,21.24,8.43s17.02-9.89,15.41-16.88c-1.41-6.11-8.86-9.77-17.48-9.03L30.89,37.1l14.62-3.37l-1.6-6.96
	l-4.43,1.17l-0.79-3.41L43.39,21.86z M62.81,136.43c1.08,4.68-3.54,9.74-10.32,11.3s-13.15-0.97-14.22-5.65
	c-1.08-4.68,3.54-9.74,10.32-11.3C55.36,129.22,61.73,131.75,62.81,136.43z"/>
</svg>
