<?xml version="1.0" encoding="utf-8"?>
<!-- Generator: Adobe Illustrator 25.0.1, SVG Export Plug-In . SVG Version: 6.00 Build 0)  -->
<svg version="1.1" id="Layer_1" xmlns="http://www.w3.org/2000/svg" xmlns:xlink="http://www.w3.org/1999/xlink" x="0px" y="0px"
	 viewBox="0 0 46.58 86.54" style="enable-background:new 0 0 46.58 86.54;" xml:space="preserve">
<style type="text/css">
	.st0{fill:none;stroke:#FFFFFF;stroke-miterlimit:10;}
</style>
<g>
	<path class="st0" d="M45.72,23.69c0-12.88-10.84-23.22-23.89-22.4C10.53,2,1.39,11.28,0.85,22.59c-0.2,4.16,0.73,8.08,2.51,11.48
		c4.29,8.2,6.37,17.38,6.37,26.63v6.2H36.8v-7.3c0-8.99,2.41-17.74,6.49-25.75C44.84,30.8,45.72,27.35,45.72,23.69z"/>
	<path class="st0" d="M35.17,84.66H11.78l-2-17.32c-0.03-0.23,0.15-0.43,0.39-0.43h26.14c0.26,0,0.47,0.23,0.45,0.49L35.17,84.66z"
		/>
	<line class="st0" x1="10.31" y1="71.91" x2="36.64" y2="68.67"/>
	<line class="st0" x1="10.31" y1="75.15" x2="36.64" y2="71.91"/>
	<line class="st0" x1="10.87" y1="78.39" x2="36.24" y2="75.15"/>
	<line class="st0" x1="11.24" y1="81.63" x2="35.96" y2="78.39"/>
	<line class="st0" x1="11.59" y1="84.66" x2="35.64" y2="81.42"/>
	<polyline class="st0" points="20.57,57.35 14.59,31.46 19.12,34.42 19.12,29.41 27.56,29.41 27.56,33.97 32.63,30.8 25.91,57.35 	
		"/>
	<rect x="20.51" y="56.89" class="st0" width="5.51" height="10.02"/>
</g>
</svg>
