<?xml version="1.0" encoding="utf-8"?>
<!-- Generator: Adobe Illustrator 25.0.1, SVG Export Plug-In . SVG Version: 6.00 Build 0)  -->
<svg version="1.1" id="Layer_1" xmlns="http://www.w3.org/2000/svg" xmlns:xlink="http://www.w3.org/1999/xlink" x="0px" y="0px"
	 viewBox="0 0 224 530" style="enable-background:new 0 0 224 530;" xml:space="preserve">
<style type="text/css">
	.st0{fill:none;stroke:#FFFFFF;stroke-miterlimit:10;}
</style>
<path class="st0" d="M1.65,4.57h14.74c0,0,29.75,17.02,76.98,18.49c5.33,0.17,10.34,0.07,15.07-0.2l-2.12-8.26l11.94-0.78l2.09,7.89
	c29.32-4.06,44.1-15.27,44.1-15.27v12.51c0,0-13.71,10.4-40.91,14.79l20.21,74.75c48.74-4.53,68.39,91.14,68.39,91.14l-95.37,23.59
	c0,0-25.44-95.62,14.7-111.88l-19.86-76.19c-5.63,0.44-11.7,0.63-18.23,0.42C56.23,34.41,29.92,23.65,20.35,19.1l136.01,497.64
	l65.27-0.78v10.35H74.28v-9.57h67.91L1.65,4.57z"/>
</svg>
