<?xml version="1.0" encoding="utf-8"?>
<!-- Generator: Adobe Illustrator 25.0.1, SVG Export Plug-In . SVG Version: 6.00 Build 0)  -->
<svg version="1.1" id="Layer_1" xmlns="http://www.w3.org/2000/svg" xmlns:xlink="http://www.w3.org/1999/xlink" x="0px" y="0px"
	 viewBox="0 0 182 394" style="enable-background:new 0 0 182 394;" xml:space="preserve">
<style type="text/css">
	.st0{fill:none;stroke:#FFFFFF;stroke-miterlimit:10;}
</style>
<g>
	<path class="st0" d="M178,135.81c4.95-56.83-22.78-106.73-63.7-119.2c-0.82-6.68-6.21-12.1-13.18-12.71
		C94.15,3.3,87.9,7.71,85.94,14.15C43.48,19.35,7.55,63.71,2.6,120.54c-5.06,58.12,24.05,109,66.5,119.99L58.21,365.62
		c-2.19,2.31-3.65,5.34-3.95,8.75c-0.7,8.01,5.23,15.06,13.24,15.76s15.06-5.23,15.76-13.24c0.3-3.42-0.62-6.65-2.38-9.3
		l10.89-125.09C135.48,239.01,172.94,193.93,178,135.81z M82.31,219.92c-35.78-3.12-61.23-46.56-56.83-97.04
		C29.87,72.39,62.45,34,98.23,37.11c35.78,3.12,61.23,46.56,56.83,97.04C150.67,184.64,118.1,223.03,82.31,219.92z"/>
	<line class="st0" x1="24.88" y1="129.8" x2="140.46" y2="65.81"/>
	<line class="st0" x1="36.44" y1="184.79" x2="155.3" y2="114.82"/>
</g>
</svg>
