<?xml version="1.0" encoding="utf-8"?>
<!-- Generator: Adobe Illustrator 25.0.1, SVG Export Plug-In . SVG Version: 6.00 Build 0)  -->
<svg version="1.1" id="Layer_1" xmlns="http://www.w3.org/2000/svg" xmlns:xlink="http://www.w3.org/1999/xlink" x="0px" y="0px"
	 viewBox="0 0 255 189" style="enable-background:new 0 0 255 189;" xml:space="preserve">
<style type="text/css">
	.st0{fill:none;stroke:#FFFFFF;stroke-miterlimit:10;}
</style>
<g>
	<polygon class="st0" points="2.03,2.42 44.19,187.07 252.43,187.07 211.9,2.42 	"/>
	<polygon class="st0" points="28.55,19.98 47.01,102.02 212.4,106.03 199.31,20.44 	"/>
	<path class="st0" d="M51.63,122.34c0,0-1.64,42.37,14.78,3.61c0,0,4.6,35.47,15.77,0.66c0,0,5.58,35.47,17.08-4.27
		c0,0,5.26,42.37,20.04,0c0,0,9.85,41.71,22.33,1.97c0,0,7.88,40.73,22.66-1.97c0,0,7.23,42.7,20.69,0c0,0,13.18,30.97,17.74,0
		c0,0,8.55,36.79,13.81,0"/>
</g>
</svg>
