<?xml version="1.0" encoding="utf-8"?>
<!-- Generator: Adobe Illustrator 25.0.1, SVG Export Plug-In . SVG Version: 6.00 Build 0)  -->
<svg version="1.1" id="Layer_1" xmlns="http://www.w3.org/2000/svg" xmlns:xlink="http://www.w3.org/1999/xlink" x="0px" y="0px"
	 viewBox="0 0 150 162" style="enable-background:new 0 0 150 162;" xml:space="preserve">
<style type="text/css">
	.st0{fill:none;stroke:#FFFFFF;stroke-miterlimit:10;}
</style>
<path class="st0" d="M58.88,60.53c3.45,2.99,7.54,4.86,11.9,5.7C62.34,70.6,54.9,78.33,54.9,78.33
	c-56.54,56.9-51.47,74.54-51.47,74.54l82.5-87.26c0.25-0.09,0.74,0.31,0.54,0.64l-74.44,94.06c0,0,18.18,2.5,66.43-61.59
	c0,0,6.36-8.16,9.55-16.96c1.48,3.83,3.81,7.28,7.02,10.06c12.09,10.48,31.91,7.41,44.26-6.85c12.35-14.26,12.55-34.31,0.46-44.78
	c-7.5-6.5-17.98-7.78-27.8-4.42c1.93-10.2-0.84-20.38-8.34-26.88C91.5-1.58,71.69,1.49,59.34,15.75S46.79,50.05,58.88,60.53z
	 M131.68,50.12c7.57,6.56,7.44,19.11-0.29,28.04S111.26,89,103.69,82.44c-7.57-6.56-7.44-19.11,0.29-28.04
	S124.11,43.56,131.68,50.12z M95.54,18.81c7.57,6.56,7.44,19.11-0.29,28.04S75.12,57.7,67.55,51.14
	c-7.57-6.56-7.44-19.11,0.29-28.04S87.97,12.26,95.54,18.81z"/>
</svg>
