<?xml version="1.0" encoding="utf-8"?>
<!-- Generator: Adobe Illustrator 25.0.1, SVG Export Plug-In . SVG Version: 6.00 Build 0)  -->
<svg version="1.1" id="Layer_1" xmlns="http://www.w3.org/2000/svg" xmlns:xlink="http://www.w3.org/1999/xlink" x="0px" y="0px"
	 viewBox="0 0 1039 484" style="enable-background:new 0 0 1039 484;" xml:space="preserve">
<style type="text/css">
	.st0{fill:none;stroke:#FFFFFF;stroke-miterlimit:10;}
</style>
<g>
	<path class="st0" d="M980.65,327.47h0.03l-17.83-60.26l-219.66,1.23c0,0,1.28-76.84-116.36-67.4s-300.23-4.53-340.16-122.67
		C264.84,13.72,263.73,8.92,262.34,9c-7.24,0.42-12.31,1.07-18.87,1.25L13.46,16.56l104.1,310.92L165.19,475h48.51l-45.9-147.53
		h157.66L373.1,475h48.51l-45.9-147.53h383.07L806.41,475h48.51l-45.9-147.53h121.4L978.05,475h48.51L980.65,327.47z"/>
	<path class="st0" d="M188.68,199.25h98.01c0,0,67.11-11.62,77.58,68.4"/>
</g>
</svg>
