<?xml version="1.0" encoding="utf-8"?>
<!-- Generator: Adobe Illustrator 25.0.1, SVG Export Plug-In . SVG Version: 6.00 Build 0)  -->
<svg version="1.1" id="Layer_1" xmlns="http://www.w3.org/2000/svg" xmlns:xlink="http://www.w3.org/1999/xlink" x="0px" y="0px"
	 viewBox="0 0 592 1246" style="enable-background:new 0 0 592 1246;" xml:space="preserve">
<style type="text/css">
	.st0{fill:none;stroke:#FFFFFF;stroke-miterlimit:10;}
</style>
<path class="st0" d="M424.46,1112.24l49.95-50.89l-16.5-27.93l-34.8-225.22l-24.8-45.57l37.4-213.8l-36.62-137.76l57.37-149.66
	l36.45,160.8l-19.49,179.69l-30.28,40.7l21.89,38.94l40.58-55.34l26.26-204.24l-19.8-125.37l-0.87-70.3l-95.37-28.64l14.09-44.47
	l-11.22-2.03l-1.71-12.35l-19.8-5.9l-18.95,55.78l-62.35-16.4l-37.75,19.78l-115.32,22L116.51,78.21l20.46-62.38l-32.93-1.62
	L82.52,78.06l50.61,184.69l175.12-34.21l-28.16,33.94l22.26,31.38l-9.61,102.25l-67.36,118.59l-19.42,253.83l13.17,60.99
	l2.24,240.24l-74.24,28.86L14.4,1092.1l-5.48,111.49l570.47,28.02l5.48-111.49L424.46,1112.24z M263.93,1104.36l-4.2-46.72
	l25.39-203.77l-7.74-77.32l52.41-231l5.24,228.05l23.78,44.44l63.12,234.59l-19.07,35.84l-32.35,21.13L263.93,1104.36z"/>
</svg>
