<?xml version="1.0" encoding="utf-8"?>
<!-- Generator: Adobe Illustrator 25.0.1, SVG Export Plug-In . SVG Version: 6.00 Build 0)  -->
<svg version="1.1" id="Layer_1" xmlns="http://www.w3.org/2000/svg" xmlns:xlink="http://www.w3.org/1999/xlink" x="0px" y="0px"
	 viewBox="0 0 259 208" style="enable-background:new 0 0 259 208;" xml:space="preserve">
<style type="text/css">
	.st0{fill:none;stroke:#FFFFFF;stroke-miterlimit:10;}
</style>
<path class="st0" d="M7.69,108.94l28.96-0.5l-3.43,51.92l37.7,46.37l147.07-20.18l25.04-55.62l-16.72-42.04l31.71-55.13
	l-10.34-16.23l-35.15,36.73l-13.44-33.78l-69.68,9.56l8.88-10.85L118.68,1.36l-14.64,18.47L116.5,31.8L41.03,42.15l-2.27,34.42
	L19.71,68.5L0.95,86.45L7.69,108.94z M10.58,92.69C9.75,86.61,14,81.01,20.07,80.18c6.07-0.83,11.67,3.41,12.51,9.49
	c0.83,6.07-3.41,11.67-9.49,12.51C17.02,103.01,11.42,98.76,10.58,92.69z"/>
</svg>
