<?xml version="1.0" encoding="utf-8"?>
<!-- Generator: Adobe Illustrator 25.0.1, SVG Export Plug-In . SVG Version: 6.00 Build 0)  -->
<svg version="1.1" id="Layer_1" xmlns="http://www.w3.org/2000/svg" xmlns:xlink="http://www.w3.org/1999/xlink" x="0px" y="0px"
	 viewBox="0 0 501 381" style="enable-background:new 0 0 501 381;" xml:space="preserve">
<style type="text/css">
	.st0{fill:none;stroke:#FFFFFF;stroke-miterlimit:10;}
</style>
<g>
	<g>
		<path class="st0" d="M223.66,359.63"/>
		<path class="st0" d="M251.23,121.05l29.38,215.27c0,0,6.69,35.92-25.86,40.17c0,0-27.24,4.89-31.1-16.86c0,0-0.64-3.54,2.76-4.28
			c3.78-0.82,4.35,3.02,4.35,3.02c2.07,13.08,22.7,10.93,22.7,10.93c23.83-4.11,19.83-31.68,19.83-31.68l-29.38-215.27"/>
		<path class="st0" d="M5.59,153.51c0,0,197.86-282.74,490.29-70.5c0,0-45.41-31.21-77.98,17.37c0,0-52.29-42.29-87.27,14.03
			c0,0-45.39-38.67-82.66,10.4c0,0-50.33-36.41-88.01,9.42c0,0-45.58-37.1-78.42,9.39C81.55,143.63,48.7,108.41,5.59,153.51z"/>
	</g>
	<path class="st0" d="M159.91,134.25c0,0-0.25-46.51,7.7-107.79"/>
	<path class="st0" d="M81.23,143.69c0,0,14.45-59.79,32.81-89.75"/>
	<path class="st0" d="M247.92,124.83c0,0-7.85-82.16-15.12-116.96"/>
	<path class="st0" d="M330.5,114.44c0,0-8.13-51.38-30.28-109.41"/>
	<path class="st0" d="M417.97,100.38c0,0-7.29-32.72-37.28-78.96"/>
</g>
</svg>
