<?xml version="1.0" encoding="utf-8"?>
<!-- Generator: Adobe Illustrator 25.0.1, SVG Export Plug-In . SVG Version: 6.00 Build 0)  -->
<svg version="1.1" id="Layer_1" xmlns="http://www.w3.org/2000/svg" xmlns:xlink="http://www.w3.org/1999/xlink" x="0px" y="0px"
	 viewBox="0 0 294 362" style="enable-background:new 0 0 294 362;" xml:space="preserve">
<style type="text/css">
	.st0{fill:#FFFFFF;stroke:#FFFFFF;stroke-miterlimit:10;}
</style>
<path class="st0" d="M268.9,5.2L4.9,20.6L24.4,356l264-15.3L268.9,5.2z M21.8,39.6l232.6-13.5l0.7,11.4l-72,4.1L183,39
	c-0.2-3.3-3-5.8-6.3-5.6l-1.6,0.1c-3.3,0.2-5.8,3-5.6,6.3l0.1,2.6l-2.5,0.1l-0.1-2.6c-0.2-3.3-3-5.8-6.3-5.6l-1.6,0.1
	c-3.3,0.2-5.8,3-5.6,6.3l0.1,2.6l-2.9,0.2l-0.1-2.6c-0.2-3.3-3-5.8-6.3-5.6l-1.6,0.1c-3.3,0.2-5.8,3-5.6,6.3l0.1,2.6l-2.5,0.1
	l-0.1-2.6c-0.2-3.3-3-5.8-6.3-5.6l-1.6,0.1c-3.3,0.2-5.8,3-5.6,6.3l0.2,2.6l-2.5,0.1l-0.2-2.6c-0.2-3.3-3-5.8-6.3-5.6l-1.6,0.1
	c-3.3,0.2-5.8,3-5.6,6.3l0.2,2.6l-2.5,0.1l-0.2-2.6c-0.2-3.3-3-5.8-6.3-5.6l-1.6,0.1c-3.3,0.2-5.8,3-5.6,6.3l0.2,2.6l-2.5,0.1
	l-0.2-2.6c-0.2-3.3-3-5.8-6.3-5.6L78.6,39c-3.3,0.2-5.8,3-5.6,6.3l0.2,2.6L70.7,48l-0.2-2.6c-0.2-3.3-3-5.8-6.3-5.6l-1.6,0.1
	c-3.3,0.2-5.8,3-5.6,6.3l0.2,2.6L54.6,49l-0.2-2.6c-0.2-3.3-3-5.8-6.3-5.6l-1.6,0.1c-3.3,0.2-5.8,3-5.6,6.3l0.2,2.6l-2.5,0.1
	l-0.2-2.6c-0.2-3.3-3-5.8-6.3-5.6l-1.6,0.1c-3.3,0.2-5.8,3-5.6,6.3l0.1,2.6l-2.7,0.2L21.8,39.6z M22.6,54.7l2.7-0.2l0.2,3.6
	c0.2,3.3,3,5.8,6.3,5.6l1.6-0.1c3.3-0.2,5.8-3,5.6-6.3l-0.2-3.6l2.5-0.1l0.2,3.6c0.2,3.3,3,5.8,6.3,5.6l1.6-0.1
	c3.3-0.2,5.8-3,5.6-6.3l-0.2-3.6l2.5-0.1l0.2,3.6c0.2,3.3,3,5.8,6.3,5.6l1.6-0.1c3.3-0.2,5.8-3,5.6-6.3L70.8,52l2.5-0.1l0.2,3.6
	c0.2,3.3,3,5.8,6.3,5.6l1.6-0.1c3.3-0.2,5.8-3,5.6-6.3L86.8,51l2.5-0.1l0.2,3.6c0.2,3.3,3,5.8,6.3,5.6l1.6-0.1
	c3.3-0.2,5.8-3,5.6-6.3l-0.2-3.6l2.5-0.1l0.2,3.6c0.2,3.3,3,5.8,6.3,5.6l1.6-0.1c3.3-0.2,5.8-3,5.6-6.3l-0.2-3.6l2.5-0.1l0.2,3.6
	c0.2,3.3,3,5.8,6.3,5.6l1.6-0.1c3.3-0.2,5.8-3,5.6-6.3l-0.2-3.6l2.5-0.1l0.2,3.6c0.2,3.3,3,5.8,6.3,5.6l1.6-0.1
	c3.3-0.2,5.8-3,5.6-6.3l-0.2-3.6l2.9-0.2l0.2,3.6c0.2,3.3,3,5.8,6.3,5.6l1.6-0.1c3.3-0.2,5.8-3,5.6-6.3l-0.2-3.6l2.5-0.1l0.2,3.6
	c0.2,3.3,3,5.8,6.3,5.6l1.6-0.1c3.3-0.2,5.8-3,5.6-6.3l-0.2-3.6l72-4.1l1.4,23.5L184.7,69l-0.2-3.2c-0.2-3.3-3-5.8-6.3-5.6l-1.6,0.1
	c-3.3,0.2-5.8,3-5.6,6.3l0.2,3.2l-2.5,0.1l-0.2-3.2c-0.2-3.3-3-5.8-6.3-5.6l-1.6,0.1c-3.3,0.2-5.8,3-5.6,6.3l0.2,3.2l-2.9,0.2
	l-0.2-3.2c-0.2-3.3-3-5.8-6.3-5.6l-1.6,0.1c-3.3,0.2-5.8,3-5.6,6.3l0.2,3.2l-2.5,0.1l-0.2-3.2c-0.2-3.3-3-5.8-6.3-5.6l-1.6,0.1
	c-3.3,0.2-5.8,3-5.6,6.3l0.2,3.2l-2.5,0.1l-0.2-3.2c-0.2-3.3-3-5.8-6.3-5.6l-1.6,0.1c-3.3,0.2-5.8,3-5.6,6.3l0.2,3.2l-2.5,0.1
	l-0.2-3.2c-0.2-3.3-3-5.8-6.3-5.6l-1.6,0.1c-3.3,0.2-5.8,3-5.6,6.3l0.2,3.2l-2.5,0.1l-0.2-3.2c-0.2-3.3-3-5.8-6.3-5.6l-1.6,0.1
	c-3.3,0.2-5.8,3-5.6,6.3l0.2,3.2l-2.5,0.1l-0.2-3.2c-0.2-3.3-3-5.8-6.3-5.6l-1.6,0.1c-3.3,0.2-5.8,3-5.6,6.3l0.2,3.2l-2.5,0.1
	l-0.2-3.2c-0.2-3.3-3-5.8-6.3-5.6l-1.6,0.1c-3.3,0.2-5.8,3-5.6,6.3l0.2,3.2l-2.5,0.1L40.1,74c-0.2-3.3-3-5.8-6.3-5.6l-1.6,0.1
	c-3.3,0.2-5.8,3-5.6,6.3l0.2,3.2L24,78.2L22.6,54.7z M24.2,82.1l2.8-0.2l0.2,3c0.2,3.3,3,5.8,6.3,5.6l1.6-0.1c3.3-0.2,5.8-3,5.6-6.3
	l-0.2-3L43,81l0.2,3c0.2,3.3,3,5.8,6.3,5.6l1.6-0.1c3.3-0.2,5.8-3,5.6-6.3l-0.2-3l2.5-0.1l0.2,3c0.2,3.3,3,5.8,6.3,5.6l1.6-0.1
	c3.3-0.2,5.8-3,5.6-6.3l-0.2-3l2.5-0.1l0.2,3c0.2,3.3,3,5.8,6.3,5.6l1.6-0.1c3.3-0.2,5.8-3,5.6-6.3l-0.2-3l2.5-0.1l0.2,3
	c0.2,3.3,3,5.8,6.3,5.6l1.6-0.1c3.3-0.2,5.8-3,5.6-6.3l-0.2-3l2.5-0.1l0.2,3c0.2,3.3,3,5.8,6.3,5.6l1.6-0.1c3.3-0.2,5.8-3,5.6-6.3
	l-0.2-3l2.5-0.1l0.2,3c0.2,3.3,3,5.8,6.3,5.6l1.6-0.1c3.3-0.2,5.8-3,5.6-6.3l-0.2-3l2.5-0.1l0.2,3c0.2,3.3,3,5.8,6.3,5.6l1.6-0.1
	c3.3-0.2,5.8-3,5.6-6.3l-0.2-3l2.9-0.2l0.2,3c0.2,3.3,3,5.8,6.3,5.6l1.6-0.1c3.3-0.2,5.8-3,5.6-6.3l-0.2-3l2.5-0.1l0.2,3
	c0.2,3.3,3,5.8,6.3,5.6l1.6-0.1c3.3-0.2,5.8-3,5.6-6.3l-0.2-3l71.9-4.1l1.4,23.5l-72.1,4.1l-0.2-3.1c-0.2-3.3-3-5.8-6.3-5.6
	l-1.6,0.1c-3.3,0.2-5.8,3-5.6,6.3l0.2,3.1l-2.5,0.1l-0.2-3.1c-0.2-3.3-3-5.8-6.3-5.6l-1.6,0.1c-3.3,0.2-5.8,3-5.6,6.3l0.2,3.1
	l-2.9,0.2l-0.2-3.1c-0.2-3.3-3-5.8-6.3-5.6l-1.6,0.1c-3.3,0.2-5.8,3-5.6,6.3l0.2,3.1l-2.5,0.1l-0.2-3.1c-0.2-3.3-3-5.8-6.3-5.6
	l-1.6,0.1c-3.3,0.2-5.8,3-5.6,6.3l0.2,3.1l-2.5,0.1l-0.2-3.1c-0.2-3.3-3-5.8-6.3-5.6l-1.6,0.1c-3.3,0.2-5.8,3-5.6,6.3l0.2,3.1
	l-2.5,0.1l-0.2-3.1c-0.2-3.3-3-5.8-6.3-5.6l-1.6,0.1c-3.3,0.2-5.8,3-5.6,6.3l0.2,3.1l-2.5,0.1l-0.2-3.1c-0.2-3.3-3-5.8-6.3-5.6
	l-1.6,0.1c-3.3,0.2-5.8,3-5.6,6.3l0.2,3.1l-2.5,0.1l-0.2-3.1c-0.2-3.3-3-5.8-6.3-5.6l-1.6,0.1c-3.3,0.2-5.8,3-5.6,6.3l0.2,3.1
	l-2.5,0.1l-0.2-3.1c-0.2-3.3-3-5.8-6.3-5.6l-1.6,0.1c-3.3,0.2-5.8,3-5.6,6.3l0.2,3.1l-2.5,0.1l-0.2-3.1c-0.2-3.3-3-5.8-6.3-5.6
	L33.6,96c-3.3,0.2-5.8,3-5.6,6.3l0.2,3.1l-2.6,0.2L24.2,82.1z M25.8,109.5l2.6-0.2l0.2,3.1c0.2,3.3,3,5.8,6.3,5.6l1.6-0.1
	c3.3-0.2,5.8-3,5.6-6.3l-0.2-3.1l2.5-0.1l0.2,3.1c0.2,3.3,3,5.8,6.3,5.6l1.6-0.1c3.3-0.2,5.8-3,5.6-6.3l-0.2-3.1l2.5-0.1l0.2,3.1
	c0.2,3.3,3,5.8,6.3,5.6l1.6-0.1c3.3-0.2,5.8-3,5.6-6.3l-0.2-3.1l2.5-0.1l0.2,3.1c0.2,3.3,3,5.8,6.3,5.6l1.6-0.1
	c3.3-0.2,5.8-3,5.6-6.3l-0.2-3.1l2.5-0.1l0.2,3.1c0.2,3.3,3,5.8,6.3,5.6l1.6-0.1c3.3-0.2,5.8-3,5.6-6.3l-0.2-3.1l2.5-0.1l0.2,3.1
	c0.2,3.3,3,5.8,6.3,5.6l1.6-0.1c3.3-0.2,5.8-3,5.6-6.3L122,104l2.5-0.1l0.2,3.1c0.2,3.3,3,5.8,6.3,5.6l1.6-0.1
	c3.3-0.2,5.8-3,5.6-6.3l-0.2-3.1l2.5-0.1l0.2,3.1c0.2,3.3,3,5.8,6.3,5.6l1.6-0.1c3.3-0.2,5.8-3,5.6-6.3l-0.2-3.1l2.9-0.2l0.2,3.1
	c0.2,3.3,3,5.8,6.3,5.6l1.6-0.1c3.3-0.2,5.8-3,5.6-6.3l-0.2-3.1l2.5-0.1l0.2,3.1c0.2,3.3,3,5.8,6.3,5.6l1.6-0.1
	c3.3-0.2,5.8-3,5.6-6.3l-0.2-3.1l72.1-4.1l1.4,24.3l-72.1,4.1l-0.2-2.9c-0.2-3.3-3-5.8-6.3-5.6l-1.6,0.1c-3.3,0.2-5.8,3-5.6,6.3
	l0.2,2.9l-2.5,0.1l-0.2-2.9c-0.2-3.3-3-5.8-6.3-5.6l-1.6,0.1c-3.3,0.2-5.8,3-5.6,6.3l0.2,2.9l-2.9,0.2l-0.2-2.9
	c-0.2-3.3-3-5.8-6.3-5.6l-1.6,0.1c-3.3,0.2-5.8,3-5.6,6.3l0.2,2.9l-2.5,0.1l-0.2-2.9c-0.2-3.3-3-5.8-6.3-5.6l-1.6,0.1
	c-3.3,0.2-5.8,3-5.6,6.3l0.2,2.9l-2.5,0.1l-0.2-2.9c-0.2-3.3-3-5.8-6.3-5.6l-1.6,0.1c-3.3,0.2-5.8,3-5.6,6.3l0.2,2.9l-2.5,0.1
	l-0.2-2.9c-0.2-3.3-3-5.8-6.3-5.6l-1.6,0.1c-3.3,0.2-5.8,3-5.6,6.3l0.2,2.9l-2.5,0.1l-0.2-2.9c-0.2-3.3-3-5.8-6.3-5.6l-1.6,0.1
	c-3.3,0.2-5.8,3-5.6,6.3l0.2,2.9l-2.5,0.1l-0.2-2.9c-0.2-3.3-3-5.8-6.3-5.6l-1.6,0.1c-3.3,0.2-5.8,3-5.6,6.3l0.2,2.9l-2.5,0.1
	l-0.2-2.9c-0.2-3.3-3-5.8-6.3-5.6l-1.6,0.1c-3.3,0.2-5.8,3-5.6,6.3l0.2,2.9l-2.5,0.1l-0.2-2.9c-0.2-3.3-3-5.8-6.3-5.6l-1.6,0.1
	c-3.3,0.2-5.8,3-5.6,6.3l0.2,2.9l-2.6,0.1L25.8,109.5z M27.5,137.7l2.6-0.1l0.2,3.3c0.2,3.3,3,5.8,6.3,5.6l1.6-0.1
	c3.3-0.2,5.8-3,5.6-6.3l-0.2-3.3l2.5-0.1l0.2,3.3c0.2,3.3,3,5.8,6.3,5.6l1.6-0.1c3.3-0.2,5.8-3,5.6-6.3l-0.2-3.3l2.5-0.1l0.2,3.3
	c0.2,3.3,3,5.8,6.3,5.6l1.6-0.1c3.3-0.2,5.8-3,5.6-6.3l-0.2-3.3l2.5-0.1l0.2,3.3c0.2,3.3,3,5.8,6.3,5.6l1.6-0.1
	c3.3-0.2,5.8-3,5.6-6.3l-0.2-3.3l2.5-0.1l0.2,3.3c0.2,3.3,3,5.8,6.3,5.6l1.6-0.1c3.3-0.2,5.8-3,5.6-6.3l-0.2-3.3l2.5-0.1l0.2,3.3
	c0.2,3.3,3,5.8,6.3,5.6l1.6-0.1c3.3-0.2,5.8-3,5.6-6.3l-0.2-3.3l2.5-0.1l0.2,3.3c0.2,3.3,3,5.8,6.3,5.6l1.6-0.1
	c3.3-0.2,5.8-3,5.6-6.3l-0.2-3.3l2.5-0.1l0.2,3.3c0.2,3.3,3,5.8,6.3,5.6l1.6-0.1c3.3-0.2,5.8-3,5.6-6.3l-0.2-3.3l2.9-0.2l0.2,3.3
	c0.2,3.3,3,5.8,6.3,5.6l1.6-0.1c3.3-0.2,5.8-3,5.6-6.3l-0.2-3.3l2.5-0.1l0.2,3.3c0.2,3.3,3,5.8,6.3,5.6l1.6-0.1
	c3.3-0.2,5.8-3,5.6-6.3l-0.2-3.3l72.1-4.1l1.4,24.4l-72.4,4.1l-0.2-3.1c-0.2-3.3-3-5.8-6.3-5.6l-1.6,0.1c-3.3,0.2-5.8,3-5.6,6.3
	l0.2,3.1l-2.5,0.1l-0.2-3.1c-0.2-3.3-3-5.8-6.3-5.6l-1.6,0.1c-3.3,0.2-5.8,3-5.6,6.3l0.2,3.1l-2.9,0.2l-0.2-3.1
	c-0.2-3.3-3-5.8-6.3-5.6l-1.6,0.1c-3.3,0.2-5.8,3-5.6,6.3l0.2,3.1l-2.5,0.1l-0.2-3.1c-0.2-3.3-3-5.8-6.3-5.6l-1.6,0.1
	c-3.3,0.2-5.8,3-5.6,6.3l0.2,3.1l-2.5,0.1l-0.2-3.1c-0.2-3.3-3-5.8-6.3-5.6l-1.6,0.1c-3.3,0.2-5.8,3-5.6,6.3l0.2,3.1l-2.5,0.1
	l-0.2-3.1c-0.2-3.3-3-5.8-6.3-5.6l-1.6,0.1c-3.3,0.2-5.8,3-5.6,6.3l0.2,3.1l-2.5,0.1l-0.2-3.1c-0.2-3.3-3-5.8-6.3-5.6l-1.6,0.1
	c-3.3,0.2-5.8,3-5.6,6.3l0.2,3.1l-2.5,0.1l-0.2-3.1c-0.2-3.3-3-5.8-6.3-5.6l-1.6,0.1c-3.3,0.2-5.8,3-5.6,6.3l0.2,3.1l-2.5,0.1
	l-0.2-3.1c-0.2-3.3-3-5.8-6.3-5.6l-1.6,0.1c-3.3,0.2-5.8,3-5.6,6.3l0.2,3.1l-2.5,0.1l-0.2-3.1c-0.2-3.3-3-5.8-6.3-5.6l-1.6,0.1
	c-3.3,0.2-5.8,3-5.6,6.3l0.2,3.1l-2.3,0.1L27.5,137.7z M29.1,165.9l2.3-0.1l0.2,3.1c0.2,3.3,3,5.8,6.3,5.6l1.6-0.1
	c3.3-0.2,5.8-3,5.6-6.3l-0.2-3.1l2.5-0.1l0.2,3.1c0.2,3.3,3,5.8,6.3,5.6l1.6-0.1c3.3-0.2,5.8-3,5.6-6.3l-0.2-3.1l2.5-0.1l0.2,3.1
	c0.2,3.3,3,5.8,6.3,5.6l1.6-0.1c3.3-0.2,5.8-3,5.6-6.3l-0.2-3.1l2.5-0.1l0.2,3.1c0.2,3.3,3,5.8,6.3,5.6l1.6-0.1
	c3.3-0.2,5.8-3,5.6-6.3l-0.2-3.1l2.5-0.1l0.2,3.1c0.2,3.3,3,5.8,6.3,5.6l1.6-0.1c3.3-0.2,5.8-3,5.6-6.3l-0.2-3.1l2.5-0.1l0.2,3.1
	c0.2,3.3,3,5.8,6.3,5.6l1.6-0.1c3.3-0.2,5.8-3,5.6-6.3l-0.2-3.1l2.5-0.1l0.2,3.1c0.2,3.3,3,5.8,6.3,5.6l1.6-0.1
	c3.3-0.2,5.8-3,5.6-6.3l-0.2-3.1l2.5-0.1l0.2,3.1c0.2,3.3,3,5.8,6.3,5.6l1.6-0.1c3.3-0.2,5.8-3,5.6-6.3l-0.2-3.1l2.9-0.2l0.2,3.1
	c0.2,3.3,3,5.8,6.3,5.6l1.6-0.1c3.3-0.2,5.8-3,5.6-6.3l-0.2-3.1l2.5-0.1l0.2,3.1c0.2,3.3,3,5.8,6.3,5.6l1.6-0.1
	c3.3-0.2,5.8-3,5.6-6.3l-0.2-3.1l72.4-4.1l1.5,25.2l-72.5,4.1l-0.2-3.5c-0.2-3.3-3-5.8-6.3-5.6l-1.6,0.1c-3.3,0.2-5.8,3-5.6,6.3
	l0.2,3.5l-2.5,0.1l-0.2-3.5c-0.2-3.3-3-5.8-6.3-5.6l-1.6,0.1c-3.3,0.2-5.8,3-5.6,6.3l0.2,3.5l-2.9,0.2l-0.2-3.5
	c-0.2-3.3-3-5.8-6.3-5.6l-1.6,0.1c-3.3,0.2-5.8,3-5.6,6.3l0.2,3.5l-2.5,0.1l-0.2-3.5c-0.2-3.3-3-5.8-6.3-5.6l-1.6,0.1
	c-3.3,0.2-5.8,3-5.6,6.3l0.2,3.5l-2.5,0.1l-0.2-3.5c-0.2-3.3-3-5.8-6.3-5.6l-1.6,0.1c-3.3,0.2-5.8,3-5.6,6.3l0.2,3.5l-2.5,0.1
	l-0.2-3.5c-0.2-3.3-3-5.8-6.3-5.6l-1.6,0.1c-3.3,0.2-5.8,3-5.6,6.3l0.2,3.5l-2.5,0.1l-0.2-3.5c-0.2-3.3-3-5.8-6.3-5.6l-1.6,0.1
	c-3.3,0.2-5.8,3-5.6,6.3l0.2,3.5l-2.5,0.1l-0.2-3.5c-0.2-3.3-3-5.8-6.3-5.6l-1.6,0.1c-3.3,0.2-5.8,3-5.6,6.3l0.2,3.5l-2.5,0.1
	l-0.2-3.5c-0.2-3.3-3-5.8-6.3-5.6l-1.6,0.1c-3.3,0.2-5.8,3-5.6,6.3l0.2,3.5l-2.5,0.1l-0.2-3.5c-0.2-3.3-3-5.8-6.3-5.6l-1.6,0.1
	c-3.3,0.2-5.8,3-5.6,6.3l0.2,3.5l-2.2,0.1L29.1,165.9z M30.8,195l2.2-0.1l0.2,2.7c0.2,3.3,3,5.8,6.3,5.6l1.6-0.1
	c3.3-0.2,5.8-3,5.6-6.3l-0.2-2.7L49,194l0.2,2.7c0.2,3.3,3,5.8,6.3,5.6l1.6-0.1c3.3-0.2,5.8-3,5.6-6.3l-0.2-2.7L65,193l0.2,2.7
	c0.2,3.3,3,5.8,6.3,5.6l1.6-0.1c3.3-0.2,5.8-3,5.6-6.3l-0.2-2.7l2.5-0.1l0.2,2.7c0.2,3.3,3,5.8,6.3,5.6l1.6-0.1
	c3.3-0.2,5.8-3,5.6-6.3l-0.2-2.7l2.5-0.1l0.2,2.7c0.2,3.3,3,5.8,6.3,5.6l1.6-0.1c3.3-0.2,5.8-3,5.6-6.3l-0.2-2.7l2.5-0.1l0.2,2.7
	c0.2,3.3,3,5.8,6.3,5.6l1.6-0.1c3.3-0.2,5.8-3,5.6-6.3l-0.2-2.7l2.5-0.1l0.1,2.7c0.2,3.3,3,5.8,6.3,5.6l1.6-0.1
	c3.3-0.2,5.8-3,5.6-6.3l-0.1-2.7l2.5-0.1l0.1,2.7c0.2,3.3,3,5.8,6.3,5.6l1.6-0.1c3.3-0.2,5.8-3,5.6-6.3l-0.1-2.7l2.9-0.2l0.1,2.7
	c0.2,3.3,3,5.8,6.3,5.6l1.6-0.1c3.3-0.2,5.8-3,5.6-6.3l-0.1-2.7l2.5-0.1l0.1,2.7c0.2,3.3,3,5.8,6.3,5.6l1.6-0.1
	c3.3-0.2,5.8-3,5.6-6.3l-0.1-2.7l72.5-4.1l1.4,23.5l-72,4.1l-0.2-3.1c-0.2-3.3-3-5.8-6.3-5.6l-1.6,0.1c-3.3,0.2-5.8,3-5.6,6.3
	l0.2,3.1l-2.5,0.1l-0.2-3.1c-0.2-3.3-3-5.8-6.3-5.6l-1.6,0.1c-3.3,0.2-5.8,3-5.6,6.3l0.2,3.1l-2.9,0.2l-0.2-3.1
	c-0.2-3.3-3-5.8-6.3-5.6l-1.6,0.1c-3.3,0.2-5.8,3-5.6,6.3l0.2,3.1l-2.5,0.1l-0.2-3.1c-0.2-3.3-3-5.8-6.3-5.6l-1.6,0.1
	c-3.3,0.2-5.8,3-5.6,6.3l0.2,3.1l-2.5,0.1l-0.2-3.1c-0.2-3.3-3-5.8-6.3-5.6l-1.6,0.1c-3.3,0.2-5.8,3-5.6,6.3l0.2,3.1l-2.5,0.1
	l-0.2-3.1c-0.2-3.3-3-5.8-6.3-5.6l-1.6,0.1c-3.3,0.2-5.8,3-5.6,6.3l0.2,3.1l-2.5,0.1l-0.2-3.1c-0.2-3.3-3-5.8-6.3-5.6l-1.6,0.1
	c-3.3,0.2-5.8,3-5.6,6.3l0.2,3.1l-2.5,0.1l-0.2-3.1c-0.2-3.3-3-5.8-6.3-5.6l-1.6,0.1c-3.3,0.2-5.8,3-5.6,6.3l0.2,3.1l-2.5,0.1
	l-0.2-3.1c-0.2-3.3-3-5.8-6.3-5.6l-1.6,0.1c-3.3,0.2-5.8,3-5.6,6.3l0.2,3.1l-2.5,0.1l-0.2-3.1c-0.2-3.3-3-5.8-6.3-5.6l-1.6,0.1
	c-3.3,0.2-5.8,3-5.6,6.3l0.2,3.1l-2.7,0.1L30.8,195z M32.4,222.4l2.7-0.1l0.2,3.1c0.2,3.3,3,5.8,6.3,5.6l1.6-0.1
	c3.3-0.2,5.8-3,5.6-6.3l-0.2-3.1l2.5-0.1l0.2,3.1c0.2,3.3,3,5.8,6.3,5.6l1.6-0.1c3.3-0.2,5.8-3,5.6-6.3l-0.2-3.1l2.5-0.1l0.2,3.1
	c0.2,3.3,3,5.8,6.3,5.6l1.6-0.1c3.3-0.2,5.8-3,5.6-6.3l-0.2-3.1l2.5-0.1l0.2,3.1c0.2,3.3,3,5.8,6.3,5.6l1.6-0.1
	c3.3-0.2,5.8-3,5.6-6.3l-0.2-3.1l2.5-0.1l0.2,3.1c0.2,3.3,3,5.8,6.3,5.6l1.6-0.1c3.3-0.2,5.8-3,5.6-6.3l-0.2-3.1l2.5-0.1l0.2,3.1
	c0.2,3.3,3,5.8,6.3,5.6l1.6-0.1c3.3-0.2,5.8-3,5.6-6.3l-0.2-3.1l2.5-0.1l0.2,3.1c0.2,3.3,3,5.8,6.3,5.6l1.6-0.1
	c3.3-0.2,5.8-3,5.6-6.3l-0.2-3.1l2.5-0.1l0.2,3.1c0.2,3.3,3,5.8,6.3,5.6l1.6-0.1c3.3-0.2,5.8-3,5.6-6.3l-0.2-3.1l2.9-0.2l0.2,3.1
	c0.2,3.3,3,5.8,6.3,5.6l1.6-0.1c3.3-0.2,5.8-3,5.6-6.3l-0.2-3.1l2.5-0.1l0.2,3.1c0.2,3.3,3,5.8,6.3,5.6l1.6-0.1
	c3.3-0.2,5.8-3,5.6-6.3l-0.2-3.1l72.1-4.1l1.3,22.8l-168.6,9.6l-0.2-3.1c-0.2-3.3-3-5.8-6.3-5.6l-1.6,0.1c-3.3,0.2-5.8,3-5.6,6.3
	l0.2,3.1l-2.5,0.1l-0.2-3.1c-0.2-3.3-3-5.8-6.3-5.6l-1.6,0.1c-3.3,0.2-5.8,3-5.6,6.3l0.2,3.1l-2.5,0.1l-0.2-3.1
	c-0.2-3.3-3-5.8-6.3-5.6l-1.6,0.1c-3.3,0.2-5.8,3-5.6,6.3l0.2,3.1l-2.5,0.1l-0.2-3.1c-0.2-3.3-3-5.8-6.3-5.6l-1.6,0.1
	c-3.3,0.2-5.8,3-5.6,6.3l0.2,3.1l-2.5,0.1L32.4,222.4z M33.9,249l2.5-0.1l0.2,3.1c0.2,3.3,3,5.8,6.3,5.6l1.6-0.1
	c3.3-0.2,5.8-3,5.6-6.3l-0.2-3.1l2.5-0.1l0.2,3.1c0.2,3.3,3,5.8,6.3,5.6l1.6-0.1c3.3-0.2,5.8-3,5.6-6.3l-0.2-3.1l2.5-0.1l0.2,3.1
	c0.2,3.3,3,5.8,6.3,5.6l1.6-0.1c3.3-0.2,5.8-3,5.6-6.3l-0.2-3.1l2.5-0.1l0.2,3.1c0.2,3.3,3,5.8,6.3,5.6l1.6-0.1
	c3.3-0.2,5.8-3,5.6-6.3l-0.2-3.1l168.6-9.6l1.2,21l-72.4,4.1l-0.2-3c-0.2-3.3-3-5.8-6.3-5.6l-1.6,0.1c-3.3,0.2-5.8,3-5.6,6.3l0.2,3
	l-2.5,0.1l-0.2-3c-0.2-3.3-3-5.8-6.3-5.6l-1.6,0.1c-3.3,0.2-5.8,3-5.6,6.3l0.2,3l-2.9,0.2l-0.2-3c-0.2-3.3-3-5.8-6.3-5.6l-1.6,0.1
	c-3.3,0.2-5.8,3-5.6,6.3l0.2,3l-2.5,0.1l-0.2-3c-0.2-3.3-3-5.8-6.3-5.6l-1.6,0.1c-3.3,0.2-5.8,3-5.6,6.3l0.2,3l-2.5,0.1l-0.2-3
	c-0.2-3.3-3-5.8-6.3-5.6l-1.6,0.1c-3.3,0.2-5.8,3-5.6,6.3l0.2,3l-2.5,0.1l-0.2-3c-0.2-3.3-3-5.8-6.3-5.6l-1.6,0.1
	c-3.3,0.2-5.8,3-5.6,6.3l0.2,3l-2.5,0.1l-0.2-3c-0.2-3.3-3-5.8-6.3-5.6l-1.6,0.1c-3.3,0.2-5.8,3-5.6,6.3l0.2,3l-2.5,0.1l-0.2-3
	c-0.2-3.3-3-5.8-6.3-5.6l-1.6,0.1c-3.3,0.2-5.8,3-5.6,6.3l0.2,3l-2.5,0.1l-0.2-3c-0.2-3.3-3-5.8-6.3-5.6l-1.6,0.1
	c-3.3,0.2-5.8,3-5.6,6.3l0.2,3l-2.5,0.1l-0.2-3c-0.2-3.3-3-5.8-6.3-5.6l-1.6,0.1c-3.3,0.2-5.8,3-5.6,6.3l0.2,3l-2.3,0.1L33.9,249z
	 M35.3,273.9l2.3-0.1l0.2,3.2c0.2,3.3,3,5.8,6.3,5.6l1.6-0.1c3.3-0.2,5.8-3,5.6-6.3l-0.2-3.2l2.5-0.1l0.2,3.2c0.2,3.3,3,5.8,6.3,5.6
	l1.6-0.1c3.3-0.2,5.8-3,5.6-6.3l-0.2-3.2l2.5-0.1l0.2,3.2c0.2,3.3,3,5.8,6.3,5.6l1.6-0.1c3.3-0.2,5.8-3,5.6-6.3l-0.2-3.2l2.5-0.1
	l0.2,3.2c0.2,3.3,3,5.8,6.3,5.6l1.6-0.1c3.3-0.2,5.8-3,5.6-6.3l-0.2-3.2l2.5-0.1l0.2,3.2c0.2,3.3,3,5.8,6.3,5.6l1.6-0.1
	c3.3-0.2,5.8-3,5.6-6.3l-0.2-3.2l2.5-0.1l0.2,3.2c0.2,3.3,3,5.8,6.3,5.6l1.6-0.1c3.3-0.2,5.8-3,5.6-6.3l-0.2-3.2l2.5-0.1l0.2,3.2
	c0.2,3.3,3,5.8,6.3,5.6l1.6-0.1c3.3-0.2,5.8-3,5.6-6.3l-0.2-3.2l2.5-0.1l0.2,3.2c0.2,3.3,3,5.8,6.3,5.6l1.6-0.1
	c3.3-0.2,5.8-3,5.6-6.3l-0.2-3.2l2.9-0.2l0.2,3.2c0.2,3.3,3,5.8,6.3,5.6l1.6-0.1c3.3-0.2,5.8-3,5.6-6.3l-0.2-3.2l2.5-0.1l0.2,3.2
	c0.2,3.3,3,5.8,6.3,5.6l1.6-0.1c3.3-0.2,5.8-3,5.6-6.3l-0.2-3.2l72.4-4.1l1.2,21l-72.6,4.1l-0.2-3.2c-0.2-3.3-3-5.8-6.3-5.6
	l-1.6,0.1c-3.3,0.2-5.8,3-5.6,6.3l0.2,3.2l-2.5,0.1l-0.2-3.2c-0.2-3.3-3-5.8-6.3-5.6l-1.6,0.1c-3.3,0.2-5.8,3-5.6,6.3l0.2,3.2
	l-2.9,0.2l-0.2-3.2c-0.2-3.3-3-5.8-6.3-5.6L156,279c-3.3,0.2-5.8,3-5.6,6.3l0.2,3.2l-2.5,0.1l-0.2-3.2c-0.2-3.3-3-5.8-6.3-5.6
	l-1.6,0.1c-3.3,0.2-5.8,3-5.6,6.3l0.2,3.2l-2.5,0.1l-0.2-3.2c-0.2-3.3-3-5.8-6.3-5.6l-1.6,0.1c-3.3,0.2-5.8,3-5.6,6.3l0.2,3.2
	l-2.5,0.1l-0.2-3.2c-0.2-3.3-3-5.8-6.3-5.6l-1.6,0.1c-3.3,0.2-5.8,3-5.6,6.3l0.2,3.2l-2.5,0.1l-0.2-3.2c-0.2-3.3-3-5.8-6.3-5.6
	l-1.6,0.1c-3.3,0.2-5.8,3-5.6,6.3l0.2,3.2l-2.5,0.1L84,289c-0.2-3.3-3-5.8-6.3-5.6l-1.6,0.1c-3.3,0.2-5.8,3-5.6,6.3l0.2,3.2
	l-2.5,0.1l-0.2-3.2c-0.2-3.3-3-5.8-6.3-5.6l-1.6,0.1c-3.3,0.2-5.8,3-5.6,6.3l0.2,3.2l-2.5,0.1l-0.2-3.2c-0.2-3.3-3-5.8-6.3-5.6
	l-1.6,0.1c-3.3,0.2-5.8,3-5.6,6.3l0.2,3.2l-2.2,0.1L35.3,273.9z M36.8,298.7l2.2-0.1l0.2,3c0.2,3.3,3,5.8,6.3,5.6l1.6-0.1
	c3.3-0.2,5.8-3,5.6-6.3l-0.2-3l2.5-0.1l0.2,3c0.2,3.3,3,5.8,6.3,5.6l1.6-0.1c3.3-0.2,5.8-3,5.6-6.3l-0.2-3l2.5-0.1l0.2,3
	c0.2,3.3,3,5.8,6.3,5.6l1.6-0.1c3.3-0.2,5.8-3,5.6-6.3l-0.2-3l2.5-0.1l0.2,3c0.2,3.3,3,5.8,6.3,5.6l1.6-0.1c3.3-0.2,5.8-3,5.6-6.3
	l-0.2-3l2.5-0.1l0.2,3c0.2,3.3,3,5.8,6.3,5.6l1.6-0.1c3.3-0.2,5.8-3,5.6-6.3l-0.2-3l2.5-0.1l0.2,3c0.2,3.3,3,5.8,6.3,5.6l1.6-0.1
	c3.3-0.2,5.8-3,5.6-6.3l-0.2-3l2.5-0.1l0.2,3c0.2,3.3,3,5.8,6.3,5.6l1.6-0.1c3.3-0.2,5.8-3,5.6-6.3l-0.2-3l2.5-0.1l0.2,3
	c0.2,3.3,3,5.8,6.3,5.6l1.6-0.1c3.3-0.2,5.8-3,5.6-6.3l-0.2-3l2.9-0.2l0.2,3c0.2,3.3,3,5.8,6.3,5.6l1.6-0.1c3.3-0.2,5.8-3,5.6-6.3
	l-0.2-3l2.5-0.1l0.2,3c0.2,3.3,3,5.8,6.3,5.6l1.6-0.1c3.3-0.2,5.8-3,5.6-6.3l-0.2-3l72.6-4.1l1.2,21l-72.2,4.1l-0.2-3.3
	c-0.2-3.3-3-5.8-6.3-5.6l-1.6,0.1c-3.3,0.2-5.8,3-5.6,6.3l0.2,3.3l-2.5,0.1l-0.2-3.3c-0.2-3.3-3-5.8-6.3-5.6l-1.6,0.1
	c-3.3,0.2-5.8,3-5.6,6.3l0.2,3.3l-2.9,0.2l-0.2-3.3c-0.2-3.3-3-5.8-6.3-5.6l-1.6,0.1c-3.3,0.2-5.8,3-5.6,6.3l0.2,3.3l-2.5,0.1
	l-0.2-3.3c-0.2-3.3-3-5.8-6.3-5.6l-1.6,0.1c-3.3,0.2-5.8,3-5.6,6.3l0.2,3.3l-2.5,0.1l-0.2-3.3c-0.2-3.3-3-5.8-6.3-5.6l-1.6,0.1
	c-3.3,0.2-5.8,3-5.6,6.3l0.2,3.3l-2.5,0.1l-0.2-3.3c-0.2-3.3-3-5.8-6.3-5.6l-1.6,0.1c-3.3,0.2-5.8,3-5.6,6.3l0.2,3.3l-2.5,0.1
	l-0.2-3.3c-0.2-3.3-3-5.8-6.3-5.6l-1.6,0.1c-3.3,0.2-5.8,3-5.6,6.3l0.2,3.3L86,317l-0.2-3.3c-0.2-3.3-3-5.8-6.3-5.6l-1.6,0.1
	c-3.3,0.2-5.8,3-5.6,6.3l0.2,3.3l-2.5,0.1l-0.2-3.3c-0.2-3.3-3-5.8-6.3-5.6l-1.6,0.1c-3.3,0.2-5.8,3-5.6,6.3l0.2,3.3l-2.5,0.1
	l-0.2-3.3c-0.2-3.3-3-5.8-6.3-5.6L46,310c-3.3,0.2-5.8,3-5.6,6.3l0.2,3.3l-2.5,0.1L36.8,298.7z M38.9,335l-0.7-11.4l2.5-0.1l0.2,2.9
	c0.2,3.3,3,5.8,6.3,5.6l1.6-0.1c3.3-0.2,5.8-3,5.6-6.3l-0.2-2.9l2.5-0.1l0.2,2.9c0.2,3.3,3,5.8,6.3,5.6l1.6-0.1
	c3.3-0.2,5.8-3,5.6-6.3l-0.2-2.9l2.5-0.1l0.2,2.9c0.2,3.3,3,5.8,6.3,5.6l1.6-0.1c3.3-0.2,5.8-3,5.6-6.3l-0.2-2.9l2.5-0.1l0.2,2.9
	c0.2,3.3,3,5.8,6.3,5.6l1.6-0.1c3.3-0.2,5.8-3,5.6-6.3l-0.2-2.9l2.5-0.1l0.2,2.9c0.2,3.3,3,5.8,6.3,5.6l1.6-0.1
	c3.3-0.2,5.8-3,5.6-6.3l-0.2-2.9l2.5-0.1l0.2,2.9c0.2,3.3,3,5.8,6.3,5.6l1.6-0.1c3.3-0.2,5.8-3,5.6-6.3l-0.2-2.9l2.5-0.1l0.2,2.9
	c0.2,3.3,3,5.8,6.3,5.6l1.6-0.1c3.3-0.2,5.8-3,5.6-6.3l-0.2-2.9l2.5-0.1l0.2,2.9c0.2,3.3,3,5.8,6.3,5.6l1.6-0.1
	c3.3-0.2,5.8-3,5.6-6.3l-0.2-2.9l2.9-0.2l0.2,2.9c0.2,3.3,3,5.8,6.3,5.6l1.6-0.1c3.3-0.2,5.8-3,5.6-6.3l-0.2-2.9l2.5-0.1l0.2,2.9
	c0.2,3.3,3,5.8,6.3,5.6l1.6-0.1c3.3-0.2,5.8-3,5.6-6.3l-0.2-2.9l72.2-4.1l0.6,11.2L38.9,335z"/>
<g>
	<path d="M-842.5-179c0-9.4,5.3-16.3,15.1-16.3s15.1,7,15.1,16.3c0,9.4-5.3,16.3-15.1,16.3S-842.5-169.7-842.5-179z M-827.4-165.6
		c6,0,10.8-4.3,10.8-13.4c0-9.1-4.8-13.4-10.8-13.4s-10.8,4.3-10.8,13.4C-838.2-169.9-833.4-165.6-827.4-165.6z"/>
	<path d="M-810.3-191.5v-3.1h26.2v3.1h-11v28.1h-4.1v-28.1H-810.3z"/>
	<path d="M-781.8-163.4v-31.2h4.1v16.1l15.1-16.1h4.7l-12,12.6l12.7,18.6h-4.9l-10.4-15.9l-5.1,5.3v10.6H-781.8z"/>
	<path d="M-754.9-163.4v-31.2h14.2c5.5,0,10.1,2.6,10.1,8.6s-4.6,8.6-10.1,8.6h-10.1v13.9H-754.9z M-750.8-180.5h9.8
		c3.4,0,6-1.7,6-5.5s-2.6-5.5-6-5.5h-9.8V-180.5z"/>
	<path d="M-723.9-194.6v13.7h9.1c5.5,0,9.8,2.4,9.8,8.6c0,6.2-4.3,8.9-9.8,8.9H-728v-31.2H-723.9z M-715-166.5
		c3.4,0,5.8-1.9,5.8-5.8c0-3.6-2.4-5.5-5.8-5.5h-8.9v11.3H-715z M-698-194.6v31.2h-4.1v-31.2H-698z"/>
	<path d="M-695.6-191.5v-3.1h26.2v3.1h-11v28.1h-4.1v-28.1H-695.6z"/>
	<path d="M-667-163.4v-31.2h4.1v16.1l15.1-16.1h4.7l-12,12.6l12.7,18.6h-4.9l-10.4-15.9l-5.1,5.3v10.6H-667z"/>
	<path d="M-629.6-194.6h4.8l12,31.2h-4.3l-3.1-8.4h-13.9l-3.1,8.4h-4.3L-629.6-194.6z M-621.4-174.9l-5.8-15.6l-5.8,15.6H-621.4z"/>
	<path d="M-586.5-178.9c0-9.4,5.3-16.3,15.1-16.3s15.1,7,15.1,16.3c0,9.4-5.3,16.3-15.1,16.3S-586.5-169.5-586.5-178.9z
		 M-571.4-165.5c6,0,10.8-4.3,10.8-13.4c0-9.1-4.8-13.4-10.8-13.4s-10.8,4.3-10.8,13.4C-582.2-169.8-577.4-165.5-571.4-165.5z"/>
	<path d="M-554.3-191.4v-3.1h26.2v3.1h-11v28.1h-4.1v-28.1H-554.3z"/>
	<path d="M-532-197.3l3.5-23.7l-5.7-0.8l0.3-2.1l0.2,0c4.7,0.7,7-1.6,7.9-3.9l2.4,0.4l-4.6,30.9L-532-197.3z"/>
	<path d="M-497.2-209.4c-1.7,11.2-6.9,16.9-15.7,15.6c-8.3-1.2-10.6-6.9-10-10.9l4,0.6c-0.4,2.8,1.2,6.7,6.4,7.5
		c5.9,0.9,9.8-3.7,11.1-11.2l-0.2,0c0,0-3.6,4.6-10.2,3.6c-7.4-1.1-11.2-6.5-10.3-12.4c1-6.6,7.1-10.4,14-9.3
		C-500.3-224.9-495.7-219.6-497.2-209.4z M-501.2-213.8c0.8-5.5-2.8-8.7-7.1-9.3s-8.7,1.4-9.5,6.8s2.8,8.7,7.1,9.3
		C-506.4-206.4-502-208.4-501.2-213.8z"/>
	<path d="M-468.6-219.4l-0.5,3.1c-8.5,6.5-14.2,14.5-17.2,25.8l-4.5-0.7c3.3-10.7,9.1-18.8,17.9-25.7l-20.9-3.1l0.5-3.1
		L-468.6-219.4z"/>
	<path d="M-469.2-202.3c1.7-11.2,6.9-16.9,15.7-15.6c8.3,1.2,10.6,6.9,10,10.9l-4-0.6c0.4-2.8-1.2-6.7-6.4-7.5
		c-5.9-0.9-9.8,3.7-11.1,11.2l0.2,0c0,0,3.6-4.6,10.2-3.6c7.4,1.1,11.2,6.5,10.3,12.4c-1,6.6-7.1,10.4-14,9.3
		C-466.1-186.8-470.7-192.1-469.2-202.3z M-465.2-197.8c-0.8,5.5,2.8,8.7,7.1,9.3s8.7-1.4,9.5-6.8c0.8-5.5-2.8-8.7-7.1-9.3
		C-460-205.3-464.4-203.3-465.2-197.8z"/>
	<path d="M-433.5-182.7l4.6-30.9l21.4,3.2l-0.5,3.1l-17.3-2.6l-4.1,27.8L-433.5-182.7z"/>
	<path d="M-407.9-194.7c1.4-9.3,7.6-15.4,17.3-13.9s13.9,9.1,12.6,18.4c-1.4,9.3-7.6,15.4-17.3,13.9S-409.3-185.4-407.9-194.7z
		 M-394.9-179.2c5.9,0.9,11.3-2.7,12.7-11.7c1.3-9-2.8-14-8.7-14.9c-5.9-0.9-11.3,2.7-12.7,11.7C-405-185-400.9-180.1-394.9-179.2z"
		/>
	<path d="M-379.7-167.5l1.5-10.2l0.9,0.1c3.3,0.5,7.1-5,9.2-19.5l1.1-7.4l19.9,3l-4.1,27.8l4.3,0.6l-1.5,10.2l-4-0.6l1.1-7.1
		l-23.3-3.4l-1.1,7.1L-379.7-167.5z M-355.2-174.3l3.7-24.7l-12.1-1.8l-0.7,4.7c-1.6,11.1-4.3,17.6-7.5,19.3L-355.2-174.3z"/>
	<path d="M-330.2-198.9l4.7,0.7l7.3,32.6l-4.3-0.6l-1.9-8.8l-13.8-2l-4.3,7.9l-4.3-0.6L-330.2-198.9z M-324.9-178.3l-3.5-16.3
		l-8,14.6L-324.9-178.3z"/>
	<path d="M-323.5-233.9l6.1,1.4l3.7,28l15.9-23.4l6.1,1.4l-7.2,30.4l-4-0.9l6.2-26.2l-16.2,23.8l-3.7-0.9l-3.8-28.5l-6.2,26.2
		l-4-0.9L-323.5-233.9z"/>
	<path d="M-292.5-210.5c2.2-9.1,8.9-14.7,18.5-12.4c9.6,2.3,13.1,10.3,10.9,19.4c-2.2,9.1-8.9,14.7-18.5,12.4
		C-291.1-193.4-294.7-201.4-292.5-210.5z M-280.9-193.9c5.8,1.4,11.5-1.7,13.6-10.6c2.1-8.9-1.6-14.2-7.4-15.6
		c-5.8-1.4-11.5,1.7-13.6,10.6C-290.4-200.6-286.7-195.3-280.9-193.9z"/>
	<path d="M-243-215.5c9.6,2.3,11.3,8.6,10.5,13.8l-4-0.9c0.8-5.2-2.1-8.9-7.2-10.1c-5.8-1.4-10.9,2.1-12.9,10.8
		c-2.1,8.6,0.9,14,6.7,15.4c5.1,1.2,9.3-0.8,11-5.8l4,0.9c-1.7,5-6.1,9.9-15.6,7.6c-9.3-2.2-12.5-9.9-10.2-19.2
		C-258.5-212.3-252.3-217.7-243-215.5z"/>
	<path d="M-234.5-180.7l7.2-30.4l4,0.9l-3.7,15.6l18.4-12.2l4.5,1.1l-14.6,9.5l8,21l-4.8-1.1l-6.5-17.9l-6.2,4l-2.4,10.3
		L-234.5-180.7z"/>
	<path d="M-208.3-174.5l7.2-30.4l13.8,3.3c5.6,1.3,9.1,4.4,7.7,10c-1.3,5.6-6.7,5.6-6.7,5.6l-0.1,0.2c0,0,5.8,2.6,4.4,8.7
		c-1.4,6.1-6.2,7.4-12.5,5.9L-208.3-174.5z M-197.8-200.9l-2.4,10.3l9.8,2.3c3.3,0.8,6-0.3,6.9-4c0.8-3.5-1.2-5.5-4.4-6.2
		L-197.8-200.9z M-193.8-174.2c3.7,0.9,6.7-0.1,7.6-3.9c0.9-3.7-1.5-6.3-5-7.1l-9.8-2.3l-2.6,11L-193.8-174.2z"/>
	<path d="M-164-196l4.7,1.1l4.5,33.1l-4.2-1l-1.1-8.9l-13.5-3.2l-5,7.5l-4.2-1L-164-196z M-160.5-175l-2-16.6l-9.3,13.9L-160.5-175z
		"/>
	<path d="M61.3-199.7v-31.2h4.1v16.1l15.1-16.1h4.7l-12,12.6l12.7,18.6h-4.9l-10.4-15.9l-5.1,5.3v10.6H61.3z"/>
	<path d="M88.1-199.7v-31.2h14.2c5.5,0,10.1,2.6,10.1,8.6s-4.6,8.6-10.1,8.6H92.2v13.9H88.1z M92.2-216.8h9.8c3.4,0,6-1.7,6-5.5
		s-2.6-5.5-6-5.5h-9.8V-216.8z"/>
	<path d="M125.6-230.9h4.8l12,31.2h-4.3l-3.1-8.4H121l-3.1,8.4h-4.3L125.6-230.9z M133.8-211.2l-5.8-15.6l-5.8,15.6H133.8z"/>
	<path d="M158.2-231.7c9.8,0,13,5.8,13.4,11h-4.1c-0.5-5.3-4.1-8.2-9.4-8.2c-6,0-10.1,4.6-10.1,13.4c0,8.9,4.1,13.4,10.1,13.4
		c5.3,0,8.9-2.9,9.4-8.2h4.1c-0.5,5.3-3.6,11-13.4,11c-9.6,0-14.4-6.7-14.4-16.3C143.8-224.9,148.6-231.7,158.2-231.7z"/>
	<path d="M178.6-230.9v13.7h16.8v-13.7h4.1v31.2h-4.1v-14.4h-16.8v14.4h-4.1v-31.2H178.6z"/>
	<path d="M213.4-230.9h4.8l12,31.2h-4.3l-3.1-8.4h-13.9l-3.1,8.4h-4.3L213.4-230.9z M221.6-211.2l-5.8-15.6l-5.8,15.6H221.6z"/>
	<path d="M230.9-199.7l9-14c-4.7-0.5-8.1-3-8.1-8.5c0-6.2,4.8-8.6,9.8-8.6h14.9v31.2h-4.1v-13.9h-8.3l-8.7,13.9H230.9z M242-216.8
		h10.6v-11H242c-3.4,0-5.8,1.7-5.8,5.5S238.6-216.8,242-216.8z"/>
	<path d="M71.3-197.9h25v31.2h-4.1v-28.1H75.4v28.1h-4.1V-197.9z"/>
	<path d="M98.2-170.1c0,0,0.5,0.1,1.2,0.1c3.4,0,6-2.5,6-18.1v-9.8h20.4v31.2h-4.1v-28.1h-12.5v7.2c0,15.8-2.9,21.1-8.9,21.1
		c-1.2,0-2.2-0.2-2.2-0.2V-170.1z"/>
	<path d="M128.7-182.3c0-9.4,5.3-16.3,15.1-16.3s15.1,7,15.1,16.3c0,9.4-5.3,16.3-15.1,16.3S128.7-172.9,128.7-182.3z M143.8-168.8
		c6,0,10.8-4.3,10.8-13.4c0-9.1-4.8-13.4-10.8-13.4c-6,0-10.8,4.3-10.8,13.4C133-173.2,137.8-168.8,143.8-168.8z"/>
	<path d="M161.8-166.7v-31.2h4.1v28.1h11.7v-28.1h4v28.1h11.7v-28.1h4.1v28.1h4.3v10.3h-4.1v-7.2H161.8z"/>
	<path d="M214.4-197.9h4.8l12,31.2h-4.3l-3.1-8.4h-13.9l-3.1,8.4h-4.3L214.4-197.9z M222.6-178.2l-5.8-15.6l-5.8,15.6H222.6z"/>
	<path d="M231.9-159.5v-10.3h1c3.4,0,6.2-6,6.2-20.6v-7.4h20.2v28.1h4.3v10.3h-4.1v-7.2H236v7.2H231.9z M255.2-169.8v-25h-12.2v4.8
		c0,11.2-1.7,18-4.6,20.2H255.2z"/>
	<path d="M265.7-166.7v-31.2h4.1v13.7h10.3c5.5,0,9.8,2.4,9.8,8.6c0,6.2-4.3,8.9-9.8,8.9H265.7z M279.9-169.8c3.4,0,5.8-1.9,5.8-5.8
		c0-3.6-2.4-5.5-5.8-5.5h-10.1v11.3H279.9z"/>
	<path d="M725.6-166.5l-3.4-9.7l0.9-0.3c3.2-1.1,3.9-7.7-1-21.5l-2.5-7l19-6.7l9.3,26.5l4.1-1.4l3.4,9.7l-3.8,1.4l-2.4-6.8
		l-22.2,7.8l2.4,6.8L725.6-166.5z M744.1-184l-8.3-23.5l-11.5,4.1l1.6,4.5c3.7,10.5,4.4,17.5,2.4,20.5L744.1-184z"/>
	<path d="M752.6-187.3c0,0,0.5,0,1.2-0.3c3.2-1.1,4.8-4.4-0.4-19.1l-3.3-9.3l19.2-6.8l10.4,29.4l-3.8,1.4l-9.3-26.5l-11.8,4.2
		l2.4,6.8c5.3,14.9,4.3,20.9-1.3,22.9c-1.1,0.4-2.1,0.5-2.1,0.5L752.6-187.3z"/>
	<path d="M781.8-194l3.8-16.2c-4.6,1.1-8.6-0.1-10.4-5.4c-2.1-5.9,1.7-9.7,6.4-11.4l14-5l10.4,29.4l-3.8,1.4l-4.6-13.1l-7.8,2.8
		l-3.6,16L781.8-194z M786.6-213.7l10-3.5l-3.7-10.4l-10,3.5c-3.2,1.1-4.9,3.5-3.6,7.1C780.6-213.4,783.4-212.6,786.6-213.7z"/>
	<path d="M807.5-199.2v13.7h16.8v-13.7h4.1v31.2h-4.1v-14.4h-16.8v14.4h-4.1v-31.2H807.5z"/>
	<path d="M835.8-199.2v25.9l17-25.9h4.3v31.2h-4.1v-25.9l-17,25.9h-4.3v-31.2H835.8z"/>
	<path d="M864.6-199.2v13.7h16.8v-13.7h4.1v31.2h-4.1v-14.4h-16.8v14.4h-4.1v-31.2H864.6z"/>
	<path d="M893-199.2v13.7h9.1c5.5,0,9.8,2.4,9.8,8.6c0,6.2-4.3,8.9-9.8,8.9h-13.2v-31.2H893z M901.8-171.1c3.4,0,5.8-1.9,5.8-5.8
		c0-3.6-2.4-5.5-5.8-5.5H893v11.3H901.8z M918.9-199.2v31.2h-4.1v-31.2H918.9z"/>
</g>
</svg>
