<?xml version="1.0" encoding="utf-8"?>
<!-- Generator: Adobe Illustrator 25.0.1, SVG Export Plug-In . SVG Version: 6.00 Build 0)  -->
<svg version="1.1" id="Layer_1" xmlns="http://www.w3.org/2000/svg" xmlns:xlink="http://www.w3.org/1999/xlink" x="0px" y="0px"
	 viewBox="0 0 346 189" style="enable-background:new 0 0 346 189;" xml:space="preserve">
<style type="text/css">
	.st0{fill:#FFFFFF;stroke:#FFFFFF;stroke-miterlimit:10;}
</style>
<g>
	<path class="st0" d="M343.3,185.7c0,0-86.9-27.6-51.7-161.9L225.5,3.9L184.8,138l25.1,7.5l6.7-41
		C216.6,104.5,222.7,149.4,343.3,185.7z"/>
	<path class="st0" d="M4,109c0,0,87.7,24.9,132.9-106.3l66.2,19.9l-40.6,134.1l-25.1-7.5l17.2-37.8C154.6,111.2,117.2,143,4,109z"/>
	<path class="st0" d="M252.6,12.1c0,0-16,57.8-20.3,117.1"/>
	<path class="st0" d="M178.2,15c0,0-15.8,53.2-47.1,106"/>
</g>
</svg>
